<?xml version="1.0" encoding="UTF-8" standalone="no"?>
<!DOCTYPE svg PUBLIC "-//W3C//DTD SVG 1.1//EN"
 "http://www.w3.org/Graphics/SVG/1.1/DTD/svg11.dtd">
<!-- Generated by graphviz version 2.50.0 (0)
 -->
<!-- Title: PROV Pages: 1 -->
<svg width="1152pt" height="568pt"
 viewBox="0.00 0.00 1152.00 568.44" xmlns="http://www.w3.org/2000/svg" xmlns:xlink="http://www.w3.org/1999/xlink">
<g id="graph0" class="graph" transform="scale(0.79 0.79) rotate(0) translate(4 714)">
<title>PROV</title>
<polygon fill="white" stroke="transparent" points="-4,4 -4,-714 1451.09,-714 1451.09,4 -4,4"/>
<!-- http://example.com/udate/chiffonDesigning -->
<g id="node1" class="node">
<title>http://example.com/udate/chiffonDesigning</title>
<g id="a_node1"><a xlink:href="http://example.com/udate/chiffonDesigning" xlink:title="chiffonDesigning">
<polygon fill="#9fb1fc" stroke="#0000ff" points="533.5,-566 422.5,-566 422.5,-530 533.5,-530 533.5,-566"/>
<text text-anchor="middle" x="478" y="-544.3" font-family="Times,serif" font-size="14.00">chiffonDesigning</text>
</a>
</g>
</g>
<!-- http://example.com/udate/chiffon -->
<g id="node26" class="node">
<title>http://example.com/udate/chiffon</title>
<g id="a_node26"><a xlink:href="http://example.com/udate/chiffon" xlink:title="chiffon">
<polygon fill="#fdb266" stroke="black" points="644.98,-625.56 600,-638 555.02,-625.56 555.06,-605.44 644.94,-605.44 644.98,-625.56"/>
<text text-anchor="middle" x="600" y="-616.3" font-family="Times,serif" font-size="14.00">chiffon</text>
</a>
</g>
</g>
<!-- http://example.com/udate/chiffonDesigning&#45;&gt;http://example.com/udate/chiffon -->
<g id="edge23" class="edge">
<title>http://example.com/udate/chiffonDesigning&#45;&gt;http://example.com/udate/chiffon</title>
<path fill="none" stroke="black" d="M507.84,-566.12C525.91,-576.49 548.96,-589.71 567.49,-600.34"/>
<polygon fill="black" stroke="black" points="565.76,-603.39 576.18,-605.33 569.25,-597.32 565.76,-603.39"/>
<text text-anchor="middle" x="520.81" y="-556.69" font-family="Times,serif" font-size="8.00">assoc</text>
</g>
<!-- http://example.com/udate/chiffonSurveying -->
<g id="node2" class="node">
<title>http://example.com/udate/chiffonSurveying</title>
<g id="a_node2"><a xlink:href="http://example.com/udate/chiffonSurveying" xlink:title="chiffonSurveying">
<polygon fill="#9fb1fc" stroke="#0000ff" points="524.5,-415.5 413.5,-415.5 413.5,-379.5 524.5,-379.5 524.5,-415.5"/>
<text text-anchor="middle" x="469" y="-393.8" font-family="Times,serif" font-size="14.00">chiffonSurveying</text>
</a>
</g>
</g>
<!-- https://tinyurl.com/chiffonQuestionnaire -->
<g id="node8" class="node">
<title>https://tinyurl.com/chiffonQuestionnaire</title>
<g id="a_node8"><a xlink:href="https://tinyurl.com/chiffonQuestionnaire" xlink:title="chiffonQuestionnaire">
<ellipse fill="#fffc87" stroke="#808080" cx="416" cy="-476" rx="85.29" ry="18"/>
<text text-anchor="middle" x="416" y="-472.3" font-family="Times,serif" font-size="14.00">chiffonQuestionnaire</text>
</a>
</g>
</g>
<!-- http://example.com/udate/chiffonSurveying&#45;&gt;https://tinyurl.com/chiffonQuestionnaire -->
<g id="edge25" class="edge">
<title>http://example.com/udate/chiffonSurveying&#45;&gt;https://tinyurl.com/chiffonQuestionnaire</title>
<path fill="none" stroke="black" d="M456.97,-415.86C450.08,-425.81 441.3,-438.48 433.64,-449.53"/>
<polygon fill="black" stroke="black" points="430.61,-447.76 427.8,-457.97 436.37,-451.75 430.61,-447.76"/>
<text text-anchor="middle" x="463.38" y="-427.52" font-family="Times,serif" font-size="8.00">use</text>
</g>
<!-- http://example.com/udate/chiffonSurveying&#45;&gt;http://example.com/udate/chiffon -->
<g id="edge21" class="edge">
<title>http://example.com/udate/chiffonSurveying&#45;&gt;http://example.com/udate/chiffon</title>
<path fill="none" stroke="black" d="M485.92,-415.77C508.46,-439.62 548.22,-484.84 572,-530 582.98,-550.85 590.52,-576.74 594.99,-595.21"/>
<polygon fill="black" stroke="black" points="591.62,-596.17 597.26,-605.13 598.44,-594.6 591.62,-596.17"/>
<text text-anchor="middle" x="500.54" y="-410.5" font-family="Times,serif" font-size="8.00">assoc</text>
</g>
<!-- http://example.com/udate/qualtrics -->
<g id="node36" class="node">
<title>http://example.com/udate/qualtrics</title>
<g id="a_node36"><a xlink:href="http://example.com/udate/qualtrics" xlink:title="qualtrics">
<polygon fill="#fdb266" stroke="black" points="729.73,-481.56 679,-494 628.27,-481.56 628.32,-461.44 729.68,-461.44 729.73,-481.56"/>
<text text-anchor="middle" x="679" y="-472.3" font-family="Times,serif" font-size="14.00">qualtrics</text>
</a>
</g>
</g>
<!-- http://example.com/udate/chiffonSurveying&#45;&gt;http://example.com/udate/qualtrics -->
<g id="edge42" class="edge">
<title>http://example.com/udate/chiffonSurveying&#45;&gt;http://example.com/udate/qualtrics</title>
<path fill="none" stroke="black" d="M515.87,-415.57C550.56,-428.21 597.62,-445.36 632.28,-457.98"/>
<polygon fill="black" stroke="black" points="631.11,-461.28 641.71,-461.42 633.51,-454.7 631.11,-461.28"/>
<text text-anchor="middle" x="527.36" y="-404.03" font-family="Times,serif" font-size="8.00">assoc</text>
</g>
<!-- &#45;attrs0 -->
<g id="node3" class="node">
<title>&#45;attrs0</title>
<polygon fill="none" stroke="gray" points="695,-337 569,-337 569,-301 701,-301 701,-331 695,-337"/>
<polyline fill="none" stroke="gray" points="695,-337 695,-331 "/>
<polyline fill="none" stroke="gray" points="701,-331 695,-331 "/>
<text text-anchor="start" x="579" y="-323" font-family="Times,serif" font-size="10.00">startedAtTime:</text>
<text text-anchor="start" x="642" y="-323" font-family="Times,serif" font-size="10.00">2024&#45;09&#45;29</text>
<text text-anchor="start" x="579" y="-310" font-family="Times,serif" font-size="10.00">endedAtTime:</text>
<text text-anchor="start" x="642" y="-310" font-family="Times,serif" font-size="10.00">2024&#45;10&#45;02</text>
</g>
<!-- &#45;attrs0&#45;&gt;http://example.com/udate/chiffonSurveying -->
<g id="edge1" class="edge">
<title>&#45;attrs0&#45;&gt;http://example.com/udate/chiffonSurveying</title>
<path fill="none" stroke="gray" stroke-dasharray="5,2" d="M597.75,-337.17C570.41,-349.77 533.44,-366.8 506.13,-379.39"/>
</g>
<!-- http://example.com/udate/chiffonAggregating -->
<g id="node4" class="node">
<title>http://example.com/udate/chiffonAggregating</title>
<g id="a_node4"><a xlink:href="http://example.com/udate/chiffonAggregating" xlink:title="chiffonAggregating">
<polygon fill="#9fb1fc" stroke="#0000ff" points="725.5,-265 602.5,-265 602.5,-229 725.5,-229 725.5,-265"/>
<text text-anchor="middle" x="664" y="-243.3" font-family="Times,serif" font-size="14.00">chiffonAggregating</text>
</a>
</g>
</g>
<!-- https://tinyurl.com/chiffonSurveyResponse -->
<g id="node10" class="node">
<title>https://tinyurl.com/chiffonSurveyResponse</title>
<g id="a_node10"><a xlink:href="https://tinyurl.com/chiffonSurveyResponse" xlink:title="chiffonSurveyResponse">
<ellipse fill="#fffc87" stroke="#808080" cx="456" cy="-319" rx="94.78" ry="18"/>
<text text-anchor="middle" x="456" y="-315.3" font-family="Times,serif" font-size="14.00">chiffonSurveyResponse</text>
</a>
</g>
</g>
<!-- http://example.com/udate/chiffonAggregating&#45;&gt;https://tinyurl.com/chiffonSurveyResponse -->
<g id="edge26" class="edge">
<title>http://example.com/udate/chiffonAggregating&#45;&gt;https://tinyurl.com/chiffonSurveyResponse</title>
<path fill="none" stroke="black" d="M613.38,-265.03C582.11,-275.56 541.99,-289.06 510.09,-299.8"/>
<polygon fill="black" stroke="black" points="508.83,-296.53 500.47,-303.03 511.07,-303.16 508.83,-296.53"/>
<text text-anchor="middle" x="610.42" y="-277.84" font-family="Times,serif" font-size="8.00">use</text>
</g>
<!-- http://example.com/udate/chiffonAggregating&#45;&gt;http://example.com/udate/chiffon -->
<g id="edge22" class="edge">
<title>http://example.com/udate/chiffonAggregating&#45;&gt;http://example.com/udate/chiffon</title>
<path fill="none" stroke="black" d="M691.6,-265.17C704.68,-274.44 719.67,-286.89 730,-301 756.89,-337.73 767,-350.98 767,-396.5 767,-396.5 767,-396.5 767,-477 767,-539.57 698.12,-580.34 648.84,-601.5"/>
<polygon fill="black" stroke="black" points="647.47,-598.28 639.58,-605.35 650.15,-604.75 647.47,-598.28"/>
<text text-anchor="middle" x="705.29" y="-257.14" font-family="Times,serif" font-size="8.00">assoc</text>
</g>
<!-- http://example.com/udate/chiffonAggregating&#45;&gt;http://example.com/udate/qualtrics -->
<g id="edge43" class="edge">
<title>http://example.com/udate/chiffonAggregating&#45;&gt;http://example.com/udate/qualtrics</title>
<path fill="none" stroke="black" d="M684.82,-265.38C694.46,-274.8 704.89,-287.3 710,-301 728.81,-351.38 724.07,-370.09 710,-422 707.07,-432.8 701.33,-443.66 695.58,-452.71"/>
<polygon fill="black" stroke="black" points="692.62,-450.84 689.92,-461.09 698.42,-454.76 692.62,-450.84"/>
<text text-anchor="middle" x="699.32" y="-259.62" font-family="Times,serif" font-size="8.00">assoc</text>
</g>
<!-- http://example.com/udate/chiffonNormalisation -->
<g id="node5" class="node">
<title>http://example.com/udate/chiffonNormalisation</title>
<g id="a_node5"><a xlink:href="http://example.com/udate/chiffonNormalisation" xlink:title="chiffonNormalisation">
<polygon fill="#9fb1fc" stroke="#0000ff" points="1067,-566 933,-566 933,-530 1067,-530 1067,-566"/>
<text text-anchor="middle" x="1000" y="-544.3" font-family="Times,serif" font-size="14.00">chiffonNormalisation</text>
</a>
</g>
</g>
<!-- http://example.com/udate/cyanDataset -->
<g id="node18" class="node">
<title>http://example.com/udate/cyanDataset</title>
<g id="a_node18"><a xlink:href="http://example.com/udate/cyanDataset" xlink:title="cyanDataset">
<ellipse fill="#fffc87" stroke="#808080" cx="1000" cy="-620" rx="53.89" ry="18"/>
<text text-anchor="middle" x="1000" y="-616.3" font-family="Times,serif" font-size="14.00">cyanDataset</text>
</a>
</g>
</g>
<!-- http://example.com/udate/chiffonNormalisation&#45;&gt;http://example.com/udate/cyanDataset -->
<g id="edge32" class="edge">
<title>http://example.com/udate/chiffonNormalisation&#45;&gt;http://example.com/udate/cyanDataset</title>
<path fill="none" stroke="black" d="M1000,-566.3C1000,-574.02 1000,-583.29 1000,-591.89"/>
<polygon fill="black" stroke="black" points="996.5,-591.9 1000,-601.9 1003.5,-591.9 996.5,-591.9"/>
<text text-anchor="middle" x="1012.99" y="-571.9" font-family="Times,serif" font-size="8.00">use</text>
</g>
<!-- http://example.com/udate/navyDataset -->
<g id="node22" class="node">
<title>http://example.com/udate/navyDataset</title>
<g id="a_node22"><a xlink:href="http://example.com/udate/navyDataset" xlink:title="navyDataset">
<ellipse fill="#fffc87" stroke="#808080" cx="1304" cy="-620" rx="53.89" ry="18"/>
<text text-anchor="middle" x="1304" y="-616.3" font-family="Times,serif" font-size="14.00">navyDataset</text>
</a>
</g>
</g>
<!-- http://example.com/udate/chiffonNormalisation&#45;&gt;http://example.com/udate/navyDataset -->
<g id="edge31" class="edge">
<title>http://example.com/udate/chiffonNormalisation&#45;&gt;http://example.com/udate/navyDataset</title>
<path fill="none" stroke="black" d="M1067.13,-564.04C1070.13,-564.7 1073.1,-565.36 1076,-566 1149.29,-582.19 1168.08,-584.22 1241,-602 1245.15,-603.01 1249.44,-604.09 1253.74,-605.2"/>
<polygon fill="black" stroke="black" points="1253.18,-608.68 1263.75,-607.82 1254.96,-601.9 1253.18,-608.68"/>
<text text-anchor="middle" x="1077.27" y="-551.08" font-family="Times,serif" font-size="8.00">use</text>
</g>
<!-- http://example.com/udate/chiffonNormalisation&#45;&gt;http://example.com/udate/chiffon -->
<g id="edge34" class="edge">
<title>http://example.com/udate/chiffonNormalisation&#45;&gt;http://example.com/udate/chiffon</title>
<path fill="none" stroke="black" d="M932.91,-564.23C929.9,-564.84 926.92,-565.44 924,-566 829.85,-584.22 719.5,-601.38 654.92,-611.01"/>
<polygon fill="black" stroke="black" points="654.34,-607.56 644.96,-612.49 655.36,-614.48 654.34,-607.56"/>
<text text-anchor="middle" x="928.15" y="-576.55" font-family="Times,serif" font-size="8.00">assoc</text>
</g>
<!-- http://example.com/udate/chiffonTask -->
<g id="node6" class="node">
<title>http://example.com/udate/chiffonTask</title>
<g id="a_node6"><a xlink:href="http://example.com/udate/chiffonTask" xlink:title="chiffonTask">
<ellipse fill="#fffc87" stroke="#808080" cx="211" cy="-548" rx="53.09" ry="18"/>
<text text-anchor="middle" x="211" y="-544.3" font-family="Times,serif" font-size="14.00">chiffonTask</text>
</a>
</g>
</g>
<!-- http://example.com/udate/lecturers -->
<g id="node34" class="node">
<title>http://example.com/udate/lecturers</title>
<g id="a_node34"><a xlink:href="http://example.com/udate/lecturers" xlink:title="lecturers">
<polygon fill="#fdb266" stroke="black" points="191.73,-625.56 141,-638 90.27,-625.56 90.32,-605.44 191.68,-605.44 191.73,-625.56"/>
<text text-anchor="middle" x="141" y="-616.3" font-family="Times,serif" font-size="14.00">lecturers</text>
</a>
</g>
</g>
<!-- http://example.com/udate/chiffonTask&#45;&gt;http://example.com/udate/lecturers -->
<g id="edge44" class="edge">
<title>http://example.com/udate/chiffonTask&#45;&gt;http://example.com/udate/lecturers</title>
<path fill="none" stroke="black" d="M194.76,-565.24C185.01,-574.99 172.51,-587.49 162.01,-597.99"/>
<polygon fill="black" stroke="black" points="159.38,-595.67 154.79,-605.21 164.33,-600.62 159.38,-595.67"/>
<text text-anchor="middle" x="198.65" y="-577.82" font-family="Times,serif" font-size="8.00">assoc</text>
</g>
<!-- &#45;attrs1 -->
<g id="node7" class="node">
<title>&#45;attrs1</title>
<polygon fill="none" stroke="gray" points="253,-494 163,-494 163,-458 259,-458 259,-488 253,-494"/>
<polyline fill="none" stroke="gray" points="253,-494 253,-488 "/>
<polyline fill="none" stroke="gray" points="259,-488 253,-488 "/>
<text text-anchor="start" x="173" y="-473" font-family="Times,serif" font-size="10.00">label:</text>
<text text-anchor="start" x="199" y="-473" font-family="Times,serif" font-size="10.00">Pet Registry</text>
</g>
<!-- &#45;attrs1&#45;&gt;http://example.com/udate/chiffonTask -->
<g id="edge2" class="edge">
<title>&#45;attrs1&#45;&gt;http://example.com/udate/chiffonTask</title>
<path fill="none" stroke="gray" stroke-dasharray="5,2" d="M211,-494.3C211,-505.15 211,-519.08 211,-529.9"/>
</g>
<!-- https://tinyurl.com/chiffonQuestionnaire&#45;&gt;http://example.com/udate/chiffonDesigning -->
<g id="edge27" class="edge">
<title>https://tinyurl.com/chiffonQuestionnaire&#45;&gt;http://example.com/udate/chiffonDesigning</title>
<path fill="none" stroke="black" d="M431.01,-493.95C438.51,-502.42 447.74,-512.83 456.02,-522.18"/>
<polygon fill="black" stroke="black" points="453.45,-524.56 462.7,-529.72 458.69,-519.92 453.45,-524.56"/>
<text text-anchor="middle" x="445.71" y="-489.05" font-family="Times,serif" font-size="8.00">gen</text>
</g>
<!-- https://tinyurl.com/chiffonQuestionnaire&#45;&gt;http://example.com/udate/chiffonTask -->
<g id="edge20" class="edge">
<title>https://tinyurl.com/chiffonQuestionnaire&#45;&gt;http://example.com/udate/chiffonTask</title>
<path fill="none" stroke="black" d="M373.03,-491.67C339.04,-503.28 291.71,-519.44 256.97,-531.3"/>
<polygon fill="black" stroke="black" points="255.41,-528.14 247.08,-534.68 257.67,-534.76 255.41,-528.14"/>
<text text-anchor="middle" x="370.13" y="-504.49" font-family="Times,serif" font-size="8.00">inf</text>
</g>
<!-- https://tinyurl.com/chiffonQuestionnaire&#45;&gt;http://example.com/udate/chiffon -->
<g id="edge30" class="edge">
<title>https://tinyurl.com/chiffonQuestionnaire&#45;&gt;http://example.com/udate/chiffon</title>
<path fill="none" stroke="black" d="M466.39,-490.53C491.09,-498.96 520.14,-511.75 542,-530 563.68,-548.1 580.17,-576.39 589.93,-596.2"/>
<polygon fill="black" stroke="black" points="586.85,-597.89 594.29,-605.43 593.18,-594.89 586.85,-597.89"/>
<text text-anchor="middle" x="477.79" y="-478.88" font-family="Times,serif" font-size="8.00">att</text>
</g>
<!-- &#45;attrs2 -->
<g id="node9" class="node">
<title>&#45;attrs2</title>
<polygon fill="none" stroke="gray" points="299,-415.5 147,-415.5 147,-379.5 305,-379.5 305,-409.5 299,-415.5"/>
<polyline fill="none" stroke="gray" points="299,-415.5 299,-409.5 "/>
<polyline fill="none" stroke="gray" points="305,-409.5 299,-409.5 "/>
<text text-anchor="start" x="157" y="-401.5" font-family="Times,serif" font-size="10.00">type:</text>
<text text-anchor="start" x="226" y="-401.5" font-family="Times,serif" font-size="10.00">ex:questionnaire</text>
<text text-anchor="start" x="157" y="-388.5" font-family="Times,serif" font-size="10.00">numberOfItems:</text>
<text text-anchor="start" x="226" y="-388.5" font-family="Times,serif" font-size="10.00">8</text>
</g>
<!-- &#45;attrs2&#45;&gt;https://tinyurl.com/chiffonQuestionnaire -->
<g id="edge3" class="edge">
<title>&#45;attrs2&#45;&gt;https://tinyurl.com/chiffonQuestionnaire</title>
<path fill="none" stroke="gray" stroke-dasharray="5,2" d="M268.64,-415.67C301.57,-428.93 346.71,-447.1 378.33,-459.83"/>
</g>
<!-- https://tinyurl.com/chiffonSurveyResponse&#45;&gt;http://example.com/udate/chiffonSurveying -->
<g id="edge28" class="edge">
<title>https://tinyurl.com/chiffonSurveyResponse&#45;&gt;http://example.com/udate/chiffonSurveying</title>
<path fill="none" stroke="black" d="M458.95,-337.36C460.56,-346.81 462.58,-358.73 464.39,-369.38"/>
<polygon fill="black" stroke="black" points="460.98,-370.2 466.11,-379.47 467.88,-369.03 460.98,-370.2"/>
<text text-anchor="middle" x="473.01" y="-340.68" font-family="Times,serif" font-size="8.00">gen</text>
</g>
<!-- &#45;attrs3 -->
<g id="node11" class="node">
<title>&#45;attrs3</title>
<polygon fill="none" stroke="gray" points="513.5,-265 392.5,-265 392.5,-229 519.5,-229 519.5,-259 513.5,-265"/>
<polyline fill="none" stroke="gray" points="513.5,-265 513.5,-259 "/>
<polyline fill="none" stroke="gray" points="519.5,-259 513.5,-259 "/>
<text text-anchor="start" x="403" y="-251" font-family="Times,serif" font-size="10.00">type:</text>
<text text-anchor="start" x="472" y="-251" font-family="Times,serif" font-size="10.00">s:Dataset</text>
<text text-anchor="start" x="403" y="-238" font-family="Times,serif" font-size="10.00">numberOfItems:</text>
<text text-anchor="start" x="472" y="-238" font-family="Times,serif" font-size="10.00">31</text>
</g>
<!-- &#45;attrs3&#45;&gt;https://tinyurl.com/chiffonSurveyResponse -->
<g id="edge4" class="edge">
<title>&#45;attrs3&#45;&gt;https://tinyurl.com/chiffonSurveyResponse</title>
<path fill="none" stroke="gray" stroke-dasharray="5,2" d="M456,-265.3C456,-276.15 456,-290.08 456,-300.9"/>
</g>
<!-- https://tinyurl.com/chiffonDataset -->
<g id="node12" class="node">
<title>https://tinyurl.com/chiffonDataset</title>
<g id="a_node12"><a xlink:href="https://tinyurl.com/chiffonDataset" xlink:title="chiffonDataset">
<ellipse fill="#fffc87" stroke="#808080" cx="530" cy="-175" rx="62.29" ry="18"/>
<text text-anchor="middle" x="530" y="-171.3" font-family="Times,serif" font-size="14.00">chiffonDataset</text>
</a>
</g>
</g>
<!-- https://tinyurl.com/chiffonDataset&#45;&gt;http://example.com/udate/chiffonAggregating -->
<g id="edge29" class="edge">
<title>https://tinyurl.com/chiffonDataset&#45;&gt;http://example.com/udate/chiffonAggregating</title>
<path fill="none" stroke="black" d="M558.75,-191.02C577.24,-200.68 601.57,-213.39 622.18,-224.15"/>
<polygon fill="black" stroke="black" points="620.57,-227.26 631.06,-228.79 623.81,-221.06 620.57,-227.26"/>
<text text-anchor="middle" x="571.41" y="-181.08" font-family="Times,serif" font-size="8.00">gen</text>
</g>
<!-- &#45;attrs4 -->
<g id="node13" class="node">
<title>&#45;attrs4</title>
<polygon fill="none" stroke="gray" points="565,-121 489,-121 489,-85 571,-85 571,-115 565,-121"/>
<polyline fill="none" stroke="gray" points="565,-121 565,-115 "/>
<polyline fill="none" stroke="gray" points="571,-115 565,-115 "/>
<text text-anchor="start" x="499" y="-100" font-family="Times,serif" font-size="10.00">type:</text>
<text text-anchor="start" x="523" y="-100" font-family="Times,serif" font-size="10.00">s:Dataset</text>
</g>
<!-- &#45;attrs4&#45;&gt;https://tinyurl.com/chiffonDataset -->
<g id="edge5" class="edge">
<title>&#45;attrs4&#45;&gt;https://tinyurl.com/chiffonDataset</title>
<path fill="none" stroke="gray" stroke-dasharray="5,2" d="M530,-121.3C530,-132.15 530,-146.08 530,-156.9"/>
</g>
<!-- https://tinyurl.com/chiffonMetadata -->
<g id="node14" class="node">
<title>https://tinyurl.com/chiffonMetadata</title>
<g id="a_node14"><a xlink:href="https://tinyurl.com/chiffonMetadata" xlink:title="chiffonMetadata">
<ellipse fill="#fffc87" stroke="#808080" cx="401" cy="-103" rx="69.59" ry="18"/>
<text text-anchor="middle" x="401" y="-99.3" font-family="Times,serif" font-size="14.00">chiffonMetadata</text>
</a>
</g>
</g>
<!-- https://tinyurl.com/chiffonMetadata&#45;&gt;https://tinyurl.com/chiffonQuestionnaire -->
<g id="edge18" class="edge">
<title>https://tinyurl.com/chiffonMetadata&#45;&gt;https://tinyurl.com/chiffonQuestionnaire</title>
<path fill="none" stroke="black" d="M386.91,-120.68C366.99,-146.03 333,-196.53 333,-246 333,-246 333,-246 333,-320 333,-371.06 368.44,-421.57 393,-450.45"/>
<polygon fill="black" stroke="black" points="390.39,-452.78 399.6,-458 395.66,-448.17 390.39,-452.78"/>
<text text-anchor="middle" x="392.7" y="-132.62" font-family="Times,serif" font-size="8.00">inf</text>
</g>
<!-- https://tinyurl.com/chiffonMetadata&#45;&gt;https://tinyurl.com/chiffonDataset -->
<g id="edge19" class="edge">
<title>https://tinyurl.com/chiffonMetadata&#45;&gt;https://tinyurl.com/chiffonDataset</title>
<path fill="none" stroke="black" d="M429.63,-119.54C448.3,-129.66 472.84,-142.98 492.99,-153.91"/>
<polygon fill="black" stroke="black" points="491.44,-157.06 501.89,-158.75 494.77,-150.9 491.44,-157.06"/>
<text text-anchor="middle" x="442.42" y="-109.79" font-family="Times,serif" font-size="8.00">inf</text>
</g>
<!-- &#45;attrs5 -->
<g id="node15" class="node">
<title>&#45;attrs5</title>
<polygon fill="none" stroke="gray" points="441,-42.5 355,-42.5 355,-6.5 447,-6.5 447,-36.5 441,-42.5"/>
<polyline fill="none" stroke="gray" points="441,-42.5 441,-36.5 "/>
<polyline fill="none" stroke="gray" points="447,-36.5 441,-36.5 "/>
<text text-anchor="start" x="365" y="-21.5" font-family="Times,serif" font-size="10.00">type:</text>
<text text-anchor="start" x="389" y="-21.5" font-family="Times,serif" font-size="10.00">prov:Entity</text>
</g>
<!-- &#45;attrs5&#45;&gt;https://tinyurl.com/chiffonMetadata -->
<g id="edge6" class="edge">
<title>&#45;attrs5&#45;&gt;https://tinyurl.com/chiffonMetadata</title>
<path fill="none" stroke="gray" stroke-dasharray="5,2" d="M401,-42.86C401,-55.47 401,-72.44 401,-84.97"/>
</g>
<!-- https://tinyurl.com/chiffonHealthIndex -->
<g id="node16" class="node">
<title>https://tinyurl.com/chiffonHealthIndex</title>
<g id="a_node16"><a xlink:href="https://tinyurl.com/chiffonHealthIndex" xlink:title="chiffonHealthIndex">
<ellipse fill="#fffc87" stroke="#808080" cx="945" cy="-476" rx="79.09" ry="18"/>
<text text-anchor="middle" x="945" y="-472.3" font-family="Times,serif" font-size="14.00">chiffonHealthIndex</text>
</a>
</g>
</g>
<!-- https://tinyurl.com/chiffonHealthIndex&#45;&gt;http://example.com/udate/chiffonNormalisation -->
<g id="edge33" class="edge">
<title>https://tinyurl.com/chiffonHealthIndex&#45;&gt;http://example.com/udate/chiffonNormalisation</title>
<path fill="none" stroke="black" d="M958.31,-493.95C964.84,-502.25 972.83,-512.42 980.06,-521.62"/>
<polygon fill="black" stroke="black" points="977.5,-524.02 986.43,-529.72 983,-519.7 977.5,-524.02"/>
<text text-anchor="middle" x="973.16" y="-489.92" font-family="Times,serif" font-size="8.00">gen</text>
</g>
<!-- https://tinyurl.com/chiffonHealthIndex&#45;&gt;http://example.com/udate/chiffon -->
<g id="edge35" class="edge">
<title>https://tinyurl.com/chiffonHealthIndex&#45;&gt;http://example.com/udate/chiffon</title>
<path fill="none" stroke="black" d="M904.33,-491.46C880.15,-500.87 849.34,-514.29 824,-530 802.82,-543.13 802.98,-554.25 781,-566 741.41,-587.17 692.31,-600.86 655.24,-609.02"/>
<polygon fill="black" stroke="black" points="654.17,-605.67 645.12,-611.17 655.63,-612.51 654.17,-605.67"/>
<text text-anchor="middle" x="902.13" y="-504.4" font-family="Times,serif" font-size="8.00">att</text>
</g>
<!-- &#45;attrs6 -->
<g id="node17" class="node">
<title>&#45;attrs6</title>
<polygon fill="none" stroke="gray" points="1033,-422 851,-422 851,-373 1039,-373 1039,-416 1033,-422"/>
<polyline fill="none" stroke="gray" points="1033,-422 1033,-416 "/>
<polyline fill="none" stroke="gray" points="1039,-416 1033,-416 "/>
<text text-anchor="start" x="861" y="-407.5" font-family="Times,serif" font-size="10.00">type:</text>
<text text-anchor="start" x="937" y="-407.5" font-family="Times,serif" font-size="10.00">prov:Entity</text>
<text text-anchor="start" x="861" y="-394.5" font-family="Times,serif" font-size="10.00">fileName:</text>
<text text-anchor="start" x="937" y="-394.5" font-family="Times,serif" font-size="10.00">Health Index</text>
<text text-anchor="start" x="861" y="-381.5" font-family="Times,serif" font-size="10.00">generatedAtTime:</text>
<text text-anchor="start" x="937" y="-381.5" font-family="Times,serif" font-size="10.00">2023&#45;10&#45;26T00:00:00</text>
</g>
<!-- &#45;attrs6&#45;&gt;https://tinyurl.com/chiffonHealthIndex -->
<g id="edge7" class="edge">
<title>&#45;attrs6&#45;&gt;https://tinyurl.com/chiffonHealthIndex</title>
<path fill="none" stroke="gray" stroke-dasharray="5,2" d="M945,-422.29C945,-433.69 945,-447.1 945,-457.55"/>
</g>
<!-- http://example.com/udate/cyan -->
<g id="node30" class="node">
<title>http://example.com/udate/cyan</title>
<g id="a_node30"><a xlink:href="http://example.com/udate/cyan" xlink:title="cyan">
<polygon fill="#fdb266" stroke="black" points="1033.99,-697.56 1000,-710 966.01,-697.56 966.05,-677.44 1033.95,-677.44 1033.99,-697.56"/>
<text text-anchor="middle" x="1000" y="-688.3" font-family="Times,serif" font-size="14.00">cyan</text>
</a>
</g>
</g>
<!-- http://example.com/udate/cyanDataset&#45;&gt;http://example.com/udate/cyan -->
<g id="edge40" class="edge">
<title>http://example.com/udate/cyanDataset&#45;&gt;http://example.com/udate/cyan</title>
<path fill="none" stroke="black" d="M1000,-638.3C1000,-647.01 1000,-657.7 1000,-667.17"/>
<polygon fill="black" stroke="black" points="996.5,-667.18 1000,-677.18 1003.5,-667.18 996.5,-667.18"/>
<text text-anchor="middle" x="1012.99" y="-643.9" font-family="Times,serif" font-size="8.00">att</text>
</g>
<!-- &#45;attrs7 -->
<g id="node19" class="node">
<title>&#45;attrs7</title>
<polygon fill="none" stroke="gray" points="909,-566 833,-566 833,-530 915,-530 915,-560 909,-566"/>
<polyline fill="none" stroke="gray" points="909,-566 909,-560 "/>
<polyline fill="none" stroke="gray" points="915,-560 909,-560 "/>
<text text-anchor="start" x="843" y="-545" font-family="Times,serif" font-size="10.00">type:</text>
<text text-anchor="start" x="867" y="-545" font-family="Times,serif" font-size="10.00">s:Dataset</text>
</g>
<!-- &#45;attrs7&#45;&gt;http://example.com/udate/cyanDataset -->
<g id="edge8" class="edge">
<title>&#45;attrs7&#45;&gt;http://example.com/udate/cyanDataset</title>
<path fill="none" stroke="gray" stroke-dasharray="5,2" d="M904.82,-566.12C925.81,-577.78 953.3,-593.05 973.34,-604.19"/>
</g>
<!-- https://tinyurl.com/cyanMetadata -->
<g id="node20" class="node">
<title>https://tinyurl.com/cyanMetadata</title>
<g id="a_node20"><a xlink:href="https://tinyurl.com/cyanMetadata" xlink:title="cyanMetadata">
<ellipse fill="#fffc87" stroke="#808080" cx="1145" cy="-548" rx="60.39" ry="18"/>
<text text-anchor="middle" x="1145" y="-544.3" font-family="Times,serif" font-size="14.00">cyanMetadata</text>
</a>
</g>
</g>
<!-- https://tinyurl.com/cyanMetadata&#45;&gt;http://example.com/udate/cyanDataset -->
<g id="edge39" class="edge">
<title>https://tinyurl.com/cyanMetadata&#45;&gt;http://example.com/udate/cyanDataset</title>
<path fill="none" stroke="black" d="M1114.6,-563.67C1092.46,-574.36 1062.31,-588.92 1038.48,-600.42"/>
<polygon fill="black" stroke="black" points="1036.85,-597.32 1029.37,-604.82 1039.89,-603.63 1036.85,-597.32"/>
<text text-anchor="middle" x="1113.5" y="-576.73" font-family="Times,serif" font-size="8.00">inf</text>
</g>
<!-- https://tinyurl.com/cyanMetadata&#45;&gt;http://example.com/udate/cyan -->
<g id="edge41" class="edge">
<title>https://tinyurl.com/cyanMetadata&#45;&gt;http://example.com/udate/cyan</title>
<path fill="none" stroke="black" d="M1130.78,-565.66C1114.88,-584 1088.06,-614.05 1063,-638 1051.11,-649.36 1037.18,-661.22 1025.45,-670.83"/>
<polygon fill="black" stroke="black" points="1022.92,-668.38 1017.35,-677.39 1027.32,-673.81 1022.92,-668.38"/>
<text text-anchor="middle" x="1135.65" y="-577.95" font-family="Times,serif" font-size="8.00">att</text>
</g>
<!-- &#45;attrs8 -->
<g id="node21" class="node">
<title>&#45;attrs8</title>
<polygon fill="none" stroke="gray" points="1185,-494 1099,-494 1099,-458 1191,-458 1191,-488 1185,-494"/>
<polyline fill="none" stroke="gray" points="1185,-494 1185,-488 "/>
<polyline fill="none" stroke="gray" points="1191,-488 1185,-488 "/>
<text text-anchor="start" x="1109" y="-473" font-family="Times,serif" font-size="10.00">type:</text>
<text text-anchor="start" x="1133" y="-473" font-family="Times,serif" font-size="10.00">prov:Entity</text>
</g>
<!-- &#45;attrs8&#45;&gt;https://tinyurl.com/cyanMetadata -->
<g id="edge9" class="edge">
<title>&#45;attrs8&#45;&gt;https://tinyurl.com/cyanMetadata</title>
<path fill="none" stroke="gray" stroke-dasharray="5,2" d="M1145,-494.3C1145,-505.15 1145,-519.08 1145,-529.9"/>
</g>
<!-- http://example.com/udate/navy -->
<g id="node28" class="node">
<title>http://example.com/udate/navy</title>
<g id="a_node28"><a xlink:href="http://example.com/udate/navy" xlink:title="navy">
<polygon fill="#fdb266" stroke="black" points="1338.59,-697.56 1304,-710 1269.41,-697.56 1269.44,-677.44 1338.56,-677.44 1338.59,-697.56"/>
<text text-anchor="middle" x="1304" y="-688.3" font-family="Times,serif" font-size="14.00">navy</text>
</a>
</g>
</g>
<!-- http://example.com/udate/navyDataset&#45;&gt;http://example.com/udate/navy -->
<g id="edge37" class="edge">
<title>http://example.com/udate/navyDataset&#45;&gt;http://example.com/udate/navy</title>
<path fill="none" stroke="black" d="M1304,-638.3C1304,-647.01 1304,-657.7 1304,-667.17"/>
<polygon fill="black" stroke="black" points="1300.5,-667.18 1304,-677.18 1307.5,-667.18 1300.5,-667.18"/>
<text text-anchor="middle" x="1316.99" y="-643.9" font-family="Times,serif" font-size="8.00">att</text>
</g>
<!-- &#45;attrs9 -->
<g id="node23" class="node">
<title>&#45;attrs9</title>
<polygon fill="none" stroke="gray" points="1301,-566 1225,-566 1225,-530 1307,-530 1307,-560 1301,-566"/>
<polyline fill="none" stroke="gray" points="1301,-566 1301,-560 "/>
<polyline fill="none" stroke="gray" points="1307,-560 1301,-560 "/>
<text text-anchor="start" x="1235" y="-545" font-family="Times,serif" font-size="10.00">type:</text>
<text text-anchor="start" x="1259" y="-545" font-family="Times,serif" font-size="10.00">s:Dataset</text>
</g>
<!-- &#45;attrs9&#45;&gt;http://example.com/udate/navyDataset -->
<g id="edge10" class="edge">
<title>&#45;attrs9&#45;&gt;http://example.com/udate/navyDataset</title>
<path fill="none" stroke="gray" stroke-dasharray="5,2" d="M1275.39,-566.3C1281.28,-577.15 1288.85,-591.08 1294.71,-601.9"/>
</g>
<!-- https://tinyurl.com/navyMetadata -->
<g id="node24" class="node">
<title>https://tinyurl.com/navyMetadata</title>
<g id="a_node24"><a xlink:href="https://tinyurl.com/navyMetadata" xlink:title="navyMetadata">
<ellipse fill="#fffc87" stroke="#808080" cx="1386" cy="-548" rx="61.19" ry="18"/>
<text text-anchor="middle" x="1386" y="-544.3" font-family="Times,serif" font-size="14.00">navyMetadata</text>
</a>
</g>
</g>
<!-- https://tinyurl.com/navyMetadata&#45;&gt;http://example.com/udate/navyDataset -->
<g id="edge36" class="edge">
<title>https://tinyurl.com/navyMetadata&#45;&gt;http://example.com/udate/navyDataset</title>
<path fill="none" stroke="black" d="M1366.98,-565.24C1356.14,-574.49 1342.39,-586.23 1330.5,-596.37"/>
<polygon fill="black" stroke="black" points="1327.97,-593.94 1322.63,-603.09 1332.51,-599.26 1327.97,-593.94"/>
<text text-anchor="middle" x="1369.71" y="-578.08" font-family="Times,serif" font-size="8.00">inf</text>
</g>
<!-- https://tinyurl.com/navyMetadata&#45;&gt;http://example.com/udate/navy -->
<g id="edge38" class="edge">
<title>https://tinyurl.com/navyMetadata&#45;&gt;http://example.com/udate/navy</title>
<path fill="none" stroke="black" d="M1385.59,-566.27C1384.44,-585.14 1380.42,-615.65 1367,-638 1359.12,-651.11 1346.82,-662.53 1335.17,-671.37"/>
<polygon fill="black" stroke="black" points="1332.95,-668.66 1326.88,-677.34 1337.04,-674.34 1332.95,-668.66"/>
<text text-anchor="middle" x="1398" y="-572.8" font-family="Times,serif" font-size="8.00">att</text>
</g>
<!-- &#45;attrs10 -->
<g id="node25" class="node">
<title>&#45;attrs10</title>
<polygon fill="none" stroke="gray" points="1426,-494 1340,-494 1340,-458 1432,-458 1432,-488 1426,-494"/>
<polyline fill="none" stroke="gray" points="1426,-494 1426,-488 "/>
<polyline fill="none" stroke="gray" points="1432,-488 1426,-488 "/>
<text text-anchor="start" x="1350" y="-473" font-family="Times,serif" font-size="10.00">type:</text>
<text text-anchor="start" x="1374" y="-473" font-family="Times,serif" font-size="10.00">prov:Entity</text>
</g>
<!-- &#45;attrs10&#45;&gt;https://tinyurl.com/navyMetadata -->
<g id="edge11" class="edge">
<title>&#45;attrs10&#45;&gt;https://tinyurl.com/navyMetadata</title>
<path fill="none" stroke="gray" stroke-dasharray="5,2" d="M1386,-494.3C1386,-505.15 1386,-519.08 1386,-529.9"/>
</g>
<!-- &#45;attrs11 -->
<g id="node27" class="node">
<title>&#45;attrs11</title>
<polygon fill="none" stroke="gray" points="398,-566 282,-566 282,-530 404,-530 404,-560 398,-566"/>
<polyline fill="none" stroke="gray" points="398,-566 398,-560 "/>
<polyline fill="none" stroke="gray" points="404,-560 398,-560 "/>
<text text-anchor="start" x="292" y="-552" font-family="Times,serif" font-size="10.00">type:</text>
<text text-anchor="start" x="318" y="-552" font-family="Times,serif" font-size="10.00">prov:Organisation</text>
<text text-anchor="start" x="292" y="-539" font-family="Times,serif" font-size="10.00">label:</text>
<text text-anchor="start" x="318" y="-539" font-family="Times,serif" font-size="10.00">Chiffon Team</text>
</g>
<!-- &#45;attrs11&#45;&gt;http://example.com/udate/chiffon -->
<g id="edge12" class="edge">
<title>&#45;attrs11&#45;&gt;http://example.com/udate/chiffon</title>
<path fill="none" stroke="gray" stroke-dasharray="5,2" d="M404.23,-565.68C450.55,-578.29 513.12,-595.34 554.93,-606.72"/>
</g>
<!-- &#45;attrs12 -->
<g id="node29" class="node">
<title>&#45;attrs12</title>
<polygon fill="none" stroke="gray" points="1226,-638 1110,-638 1110,-602 1232,-602 1232,-632 1226,-638"/>
<polyline fill="none" stroke="gray" points="1226,-638 1226,-632 "/>
<polyline fill="none" stroke="gray" points="1232,-632 1226,-632 "/>
<text text-anchor="start" x="1120" y="-624" font-family="Times,serif" font-size="10.00">type:</text>
<text text-anchor="start" x="1146" y="-624" font-family="Times,serif" font-size="10.00">prov:Organisation</text>
<text text-anchor="start" x="1120" y="-611" font-family="Times,serif" font-size="10.00">label:</text>
<text text-anchor="start" x="1146" y="-611" font-family="Times,serif" font-size="10.00">Navy Team</text>
</g>
<!-- &#45;attrs12&#45;&gt;http://example.com/udate/navy -->
<g id="edge13" class="edge">
<title>&#45;attrs12&#45;&gt;http://example.com/udate/navy</title>
<path fill="none" stroke="gray" stroke-dasharray="5,2" d="M1203.54,-638.12C1226.45,-650.19 1256.73,-666.12 1278.03,-677.33"/>
</g>
<!-- &#45;attrs13 -->
<g id="node31" class="node">
<title>&#45;attrs13</title>
<polygon fill="none" stroke="gray" points="922,-638 806,-638 806,-602 928,-602 928,-632 922,-638"/>
<polyline fill="none" stroke="gray" points="922,-638 922,-632 "/>
<polyline fill="none" stroke="gray" points="928,-632 922,-632 "/>
<text text-anchor="start" x="816" y="-624" font-family="Times,serif" font-size="10.00">type:</text>
<text text-anchor="start" x="842" y="-624" font-family="Times,serif" font-size="10.00">prov:Organisation</text>
<text text-anchor="start" x="816" y="-611" font-family="Times,serif" font-size="10.00">label:</text>
<text text-anchor="start" x="842" y="-611" font-family="Times,serif" font-size="10.00">Cyan Team</text>
</g>
<!-- &#45;attrs13&#45;&gt;http://example.com/udate/cyan -->
<g id="edge14" class="edge">
<title>&#45;attrs13&#45;&gt;http://example.com/udate/cyan</title>
<path fill="none" stroke="gray" stroke-dasharray="5,2" d="M899.54,-638.12C922.45,-650.19 952.73,-666.12 974.03,-677.33"/>
</g>
<!-- http://example.com/udate/allGroups -->
<g id="node32" class="node">
<title>http://example.com/udate/allGroups</title>
<g id="a_node32"><a xlink:href="http://example.com/udate/allGroups" xlink:title="allGroups">
<polygon fill="#fdb266" stroke="black" points="893.47,-108.56 837,-121 780.53,-108.56 780.58,-88.44 893.42,-88.44 893.47,-108.56"/>
<text text-anchor="middle" x="837" y="-99.3" font-family="Times,serif" font-size="14.00">allGroups</text>
</a>
</g>
</g>
<!-- &#45;attrs14 -->
<g id="node33" class="node">
<title>&#45;attrs14</title>
<polygon fill="none" stroke="gray" points="818.5,-49 465.5,-49 465.5,0 824.5,0 824.5,-43 818.5,-49"/>
<polyline fill="none" stroke="gray" points="818.5,-49 818.5,-43 "/>
<polyline fill="none" stroke="gray" points="824.5,-43 818.5,-43 "/>
<text text-anchor="start" x="476" y="-34.5" font-family="Times,serif" font-size="10.00">type:</text>
<text text-anchor="start" x="527" y="-34.5" font-family="Times,serif" font-size="10.00">prov:Agent</text>
<text text-anchor="start" x="476" y="-21.5" font-family="Times,serif" font-size="10.00">label:</text>
<text text-anchor="start" x="527" y="-21.5" font-family="Times,serif" font-size="10.00">All Survey Respondents</text>
<text text-anchor="start" x="476" y="-8.5" font-family="Times,serif" font-size="10.00">description:</text>
<text text-anchor="start" x="527" y="-8.5" font-family="Times,serif" font-size="10.00">Represents all respondents in the udate course survey, across all groups</text>
</g>
<!-- &#45;attrs14&#45;&gt;http://example.com/udate/allGroups -->
<g id="edge15" class="edge">
<title>&#45;attrs14&#45;&gt;http://example.com/udate/allGroups</title>
<path fill="none" stroke="gray" stroke-dasharray="5,2" d="M704.17,-49.08C736.57,-61.98 775.56,-77.52 802.88,-88.41"/>
</g>
<!-- &#45;attrs15 -->
<g id="node35" class="node">
<title>&#45;attrs15</title>
<polygon fill="none" stroke="gray" points="134,-566 0,-566 0,-530 140,-530 140,-560 134,-566"/>
<polyline fill="none" stroke="gray" points="134,-566 134,-560 "/>
<polyline fill="none" stroke="gray" points="140,-560 134,-560 "/>
<text text-anchor="start" x="10" y="-552" font-family="Times,serif" font-size="10.00">type:</text>
<text text-anchor="start" x="36" y="-552" font-family="Times,serif" font-size="10.00">prov:Organisation</text>
<text text-anchor="start" x="10" y="-539" font-family="Times,serif" font-size="10.00">label:</text>
<text text-anchor="start" x="36" y="-539" font-family="Times,serif" font-size="10.00">UDATE Teaching Staff</text>
</g>
<!-- &#45;attrs15&#45;&gt;http://example.com/udate/lecturers -->
<g id="edge16" class="edge">
<title>&#45;attrs15&#45;&gt;http://example.com/udate/lecturers</title>
<path fill="none" stroke="gray" stroke-dasharray="5,2" d="M87.55,-566.3C99.71,-578.29 115.67,-594.03 126.98,-605.18"/>
</g>
<!-- &#45;attrs16 -->
<g id="node37" class="node">
<title>&#45;attrs16</title>
<polygon fill="none" stroke="gray" points="695,-415.5 543,-415.5 543,-379.5 701,-379.5 701,-409.5 695,-415.5"/>
<polyline fill="none" stroke="gray" points="695,-415.5 695,-409.5 "/>
<polyline fill="none" stroke="gray" points="701,-409.5 695,-409.5 "/>
<text text-anchor="start" x="553" y="-401.5" font-family="Times,serif" font-size="10.00">type:</text>
<text text-anchor="start" x="579" y="-401.5" font-family="Times,serif" font-size="10.00">prov:Organisation</text>
<text text-anchor="start" x="553" y="-388.5" font-family="Times,serif" font-size="10.00">label:</text>
<text text-anchor="start" x="579" y="-388.5" font-family="Times,serif" font-size="10.00">Qualtrics Software Package</text>
</g>
<!-- &#45;attrs16&#45;&gt;http://example.com/udate/qualtrics -->
<g id="edge17" class="edge">
<title>&#45;attrs16&#45;&gt;http://example.com/udate/qualtrics</title>
<path fill="none" stroke="gray" stroke-dasharray="5,2" d="M634.93,-415.86C645.18,-429.61 659.3,-448.57 668.77,-461.27"/>
</g>
<!-- http://example.com/udate/chiffonSurveyResponse -->
<g id="node38" class="node">
<title>http://example.com/udate/chiffonSurveyResponse</title>
<ellipse fill="none" stroke="black" cx="1030" cy="-24.5" rx="187.67" ry="18"/>
<text text-anchor="middle" x="1030" y="-20.8" font-family="Times,serif" font-size="14.00">http://example.com/udate/chiffonSurveyResponse</text>
</g>
<!-- http://example.com/udate/chiffonSurveyResponse&#45;&gt;http://example.com/udate/allGroups -->
<g id="edge24" class="edge">
<title>http://example.com/udate/chiffonSurveyResponse&#45;&gt;http://example.com/udate/allGroups</title>
<path fill="none" stroke="black" d="M988.12,-42.1C956.47,-54.64 913.14,-71.82 880.99,-84.57"/>
<polygon fill="black" stroke="black" points="879.4,-81.43 871.39,-88.37 881.98,-87.94 879.4,-81.43"/>
<text text-anchor="middle" x="985.94" y="-55.04" font-family="Times,serif" font-size="8.00">assoc</text>
</g>
</g>
</svg>
