<?xml version="1.0" encoding="UTF-8" standalone="no"?>
<!DOCTYPE svg PUBLIC "-//W3C//DTD SVG 1.1//EN"
 "http://www.w3.org/Graphics/SVG/1.1/DTD/svg11.dtd">
<!-- Generated by graphviz version 2.50.0 (0)
 -->
<!-- Title: PROV Pages: 1 -->
<svg width="1152pt" height="456pt"
 viewBox="0.00 0.00 1152.00 456.48" xmlns="http://www.w3.org/2000/svg" xmlns:xlink="http://www.w3.org/1999/xlink">
<g id="graph0" class="graph" transform="scale(0.64 0.64) rotate(0) translate(4 714)">
<title>PROV</title>
<polygon fill="white" stroke="transparent" points="-4,4 -4,-714 1808,-714 1808,4 -4,4"/>
<!-- http://example.com/udate/chiffonDesigning -->
<g id="node1" class="node">
<title>http://example.com/udate/chiffonDesigning</title>
<g id="a_node1"><a xlink:href="http://example.com/udate/chiffonDesigning" xlink:title="chiffonDesigning">
<polygon fill="#9fb1fc" stroke="#0000ff" points="483.5,-566 372.5,-566 372.5,-530 483.5,-530 483.5,-566"/>
<text text-anchor="middle" x="428" y="-544.3" font-family="Times,serif" font-size="14.00">chiffonDesigning</text>
</a>
</g>
</g>
<!-- http://example.com/udate/chiffonTask -->
<g id="node6" class="node">
<title>http://example.com/udate/chiffonTask</title>
<g id="a_node6"><a xlink:href="http://example.com/udate/chiffonTask" xlink:title="chiffonTask">
<ellipse fill="#fffc87" stroke="#808080" cx="367" cy="-620" rx="53.09" ry="18"/>
<text text-anchor="middle" x="367" y="-616.3" font-family="Times,serif" font-size="14.00">chiffonTask</text>
</a>
</g>
</g>
<!-- http://example.com/udate/chiffonDesigning&#45;&gt;http://example.com/udate/chiffonTask -->
<g id="edge26" class="edge">
<title>http://example.com/udate/chiffonDesigning&#45;&gt;http://example.com/udate/chiffonTask</title>
<path fill="none" stroke="black" d="M412.92,-566.3C405.42,-574.91 396.24,-585.45 388.06,-594.83"/>
<polygon fill="black" stroke="black" points="385.42,-592.54 381.49,-602.38 390.69,-597.14 385.42,-592.54"/>
<text text-anchor="middle" x="417.79" y="-578.59" font-family="Times,serif" font-size="8.00">use</text>
</g>
<!-- http://example.com/udate/chiffon -->
<g id="node26" class="node">
<title>http://example.com/udate/chiffon</title>
<g id="a_node26"><a xlink:href="http://example.com/udate/chiffon" xlink:title="chiffon">
<polygon fill="#fdb266" stroke="black" points="996.98,-625.56 952,-638 907.02,-625.56 907.06,-605.44 996.94,-605.44 996.98,-625.56"/>
<text text-anchor="middle" x="952" y="-616.3" font-family="Times,serif" font-size="14.00">chiffon</text>
</a>
</g>
</g>
<!-- http://example.com/udate/chiffonDesigning&#45;&gt;http://example.com/udate/chiffon -->
<g id="edge22" class="edge">
<title>http://example.com/udate/chiffonDesigning&#45;&gt;http://example.com/udate/chiffon</title>
<path fill="none" stroke="black" d="M483.65,-563.16C488.49,-564.2 493.32,-565.16 498,-566 640.8,-591.58 811.18,-607.65 896.92,-614.75"/>
<polygon fill="black" stroke="black" points="896.7,-618.25 906.95,-615.57 897.27,-611.27 896.7,-618.25"/>
<text text-anchor="middle" x="493.69" y="-550.12" font-family="Times,serif" font-size="8.00">assoc</text>
</g>
<!-- http://example.com/udate/chiffonSurveying -->
<g id="node2" class="node">
<title>http://example.com/udate/chiffonSurveying</title>
<g id="a_node2"><a xlink:href="http://example.com/udate/chiffonSurveying" xlink:title="chiffonSurveying">
<polygon fill="#9fb1fc" stroke="#0000ff" points="507.5,-415.5 396.5,-415.5 396.5,-379.5 507.5,-379.5 507.5,-415.5"/>
<text text-anchor="middle" x="452" y="-393.8" font-family="Times,serif" font-size="14.00">chiffonSurveying</text>
</a>
</g>
</g>
<!-- https://tinyurl.com/chiffonQuestionnaire -->
<g id="node8" class="node">
<title>https://tinyurl.com/chiffonQuestionnaire</title>
<g id="a_node8"><a xlink:href="https://tinyurl.com/chiffonQuestionnaire" xlink:title="chiffonQuestionnaire">
<ellipse fill="#fffc87" stroke="#808080" cx="428" cy="-476" rx="85.29" ry="18"/>
<text text-anchor="middle" x="428" y="-472.3" font-family="Times,serif" font-size="14.00">chiffonQuestionnaire</text>
</a>
</g>
</g>
<!-- http://example.com/udate/chiffonSurveying&#45;&gt;https://tinyurl.com/chiffonQuestionnaire -->
<g id="edge24" class="edge">
<title>http://example.com/udate/chiffonSurveying&#45;&gt;https://tinyurl.com/chiffonQuestionnaire</title>
<path fill="none" stroke="black" d="M446.55,-415.86C443.56,-425.41 439.77,-437.48 436.4,-448.21"/>
<polygon fill="black" stroke="black" points="433,-447.38 433.34,-457.97 439.67,-449.48 433,-447.38"/>
<text text-anchor="middle" x="456.7" y="-425" font-family="Times,serif" font-size="8.00">use</text>
</g>
<!-- http://example.com/udate/chiffonSurveying&#45;&gt;http://example.com/udate/chiffon -->
<g id="edge20" class="edge">
<title>http://example.com/udate/chiffonSurveying&#45;&gt;http://example.com/udate/chiffon</title>
<path fill="none" stroke="black" d="M472.05,-415.54C502.6,-441.41 558.42,-488.22 569,-494 677.97,-553.53 819.99,-590.61 896.82,-607.75"/>
<polygon fill="black" stroke="black" points="896.25,-611.2 906.76,-609.93 897.75,-604.37 896.25,-611.2"/>
<text text-anchor="middle" x="486.16" y="-408.56" font-family="Times,serif" font-size="8.00">assoc</text>
</g>
<!-- http://example.com/udate/qualtrics -->
<g id="node36" class="node">
<title>http://example.com/udate/qualtrics</title>
<g id="a_node36"><a xlink:href="http://example.com/udate/qualtrics" xlink:title="qualtrics">
<polygon fill="#fdb266" stroke="black" points="679.73,-481.56 629,-494 578.27,-481.56 578.32,-461.44 679.68,-461.44 679.73,-481.56"/>
<text text-anchor="middle" x="629" y="-472.3" font-family="Times,serif" font-size="14.00">qualtrics</text>
</a>
</g>
</g>
<!-- http://example.com/udate/chiffonSurveying&#45;&gt;http://example.com/udate/qualtrics -->
<g id="edge43" class="edge">
<title>http://example.com/udate/chiffonSurveying&#45;&gt;http://example.com/udate/qualtrics</title>
<path fill="none" stroke="black" d="M491.72,-415.67C520.38,-428.06 558.97,-444.73 587.94,-457.25"/>
<polygon fill="black" stroke="black" points="586.8,-460.57 597.36,-461.33 589.57,-454.15 586.8,-460.57"/>
<text text-anchor="middle" x="503.76" y="-404.82" font-family="Times,serif" font-size="8.00">assoc</text>
</g>
<!-- &#45;attrs0 -->
<g id="node3" class="node">
<title>&#45;attrs0</title>
<polygon fill="none" stroke="gray" points="340,-330.5 214,-330.5 214,-294.5 346,-294.5 346,-324.5 340,-330.5"/>
<polyline fill="none" stroke="gray" points="340,-330.5 340,-324.5 "/>
<polyline fill="none" stroke="gray" points="346,-324.5 340,-324.5 "/>
<text text-anchor="start" x="224" y="-316.5" font-family="Times,serif" font-size="10.00">startedAtTime:</text>
<text text-anchor="start" x="287" y="-316.5" font-family="Times,serif" font-size="10.00">2024&#45;09&#45;29</text>
<text text-anchor="start" x="224" y="-303.5" font-family="Times,serif" font-size="10.00">endedAtTime:</text>
<text text-anchor="start" x="287" y="-303.5" font-family="Times,serif" font-size="10.00">2024&#45;10&#45;02</text>
</g>
<!-- &#45;attrs0&#45;&gt;http://example.com/udate/chiffonSurveying -->
<g id="edge1" class="edge">
<title>&#45;attrs0&#45;&gt;http://example.com/udate/chiffonSurveying</title>
<path fill="none" stroke="gray" stroke-dasharray="5,2" d="M315.64,-330.7C345.26,-344.99 387.18,-365.22 416.7,-379.47"/>
</g>
<!-- http://example.com/udate/chiffonAggregating -->
<g id="node4" class="node">
<title>http://example.com/udate/chiffonAggregating</title>
<g id="a_node4"><a xlink:href="http://example.com/udate/chiffonAggregating" xlink:title="chiffonAggregating">
<polygon fill="#9fb1fc" stroke="#0000ff" points="968.5,-252 845.5,-252 845.5,-216 968.5,-216 968.5,-252"/>
<text text-anchor="middle" x="907" y="-230.3" font-family="Times,serif" font-size="14.00">chiffonAggregating</text>
</a>
</g>
</g>
<!-- https://tinyurl.com/chiffonSurveyResponse -->
<g id="node10" class="node">
<title>https://tinyurl.com/chiffonSurveyResponse</title>
<g id="a_node10"><a xlink:href="https://tinyurl.com/chiffonSurveyResponse" xlink:title="chiffonSurveyResponse">
<ellipse fill="#fffc87" stroke="#808080" cx="459" cy="-312.5" rx="94.78" ry="18"/>
<text text-anchor="middle" x="459" y="-308.8" font-family="Times,serif" font-size="14.00">chiffonSurveyResponse</text>
</a>
</g>
</g>
<!-- http://example.com/udate/chiffonAggregating&#45;&gt;https://tinyurl.com/chiffonSurveyResponse -->
<g id="edge25" class="edge">
<title>http://example.com/udate/chiffonAggregating&#45;&gt;https://tinyurl.com/chiffonSurveyResponse</title>
<path fill="none" stroke="black" d="M845.39,-243.1C776.19,-252.52 660.67,-269.19 562,-288 549.92,-290.3 537.09,-293.01 524.75,-295.76"/>
<polygon fill="black" stroke="black" points="523.96,-292.35 514.98,-297.96 525.5,-299.18 523.96,-292.35"/>
<text text-anchor="middle" x="839.73" y="-255.09" font-family="Times,serif" font-size="8.00">use</text>
</g>
<!-- http://example.com/udate/chiffonAggregating&#45;&gt;http://example.com/udate/chiffon -->
<g id="edge21" class="edge">
<title>http://example.com/udate/chiffonAggregating&#45;&gt;http://example.com/udate/chiffon</title>
<path fill="none" stroke="black" d="M933.83,-252.01C971.37,-278.12 1035,-331.92 1035,-396.5 1035,-396.5 1035,-396.5 1035,-477 1035,-517.97 1032.45,-531.1 1011,-566 1003.24,-578.62 991.59,-589.99 980.68,-598.94"/>
<polygon fill="black" stroke="black" points="978.28,-596.37 972.56,-605.28 982.59,-601.88 978.28,-596.37"/>
<text text-anchor="middle" x="947.52" y="-243.98" font-family="Times,serif" font-size="8.00">assoc</text>
</g>
<!-- http://example.com/udate/chiffonAggregating&#45;&gt;http://example.com/udate/qualtrics -->
<g id="edge44" class="edge">
<title>http://example.com/udate/chiffonAggregating&#45;&gt;http://example.com/udate/qualtrics</title>
<path fill="none" stroke="black" d="M920.24,-252.27C934.47,-273.11 953.27,-308.86 939,-337 892.66,-428.4 766.18,-459.3 689.85,-469.72"/>
<polygon fill="black" stroke="black" points="689.36,-466.26 679.89,-471.01 690.25,-473.2 689.36,-466.26"/>
<text text-anchor="middle" x="935.21" y="-249.53" font-family="Times,serif" font-size="8.00">assoc</text>
</g>
<!-- http://example.com/udate/chiffonNormalisation -->
<g id="node5" class="node">
<title>http://example.com/udate/chiffonNormalisation</title>
<g id="a_node5"><a xlink:href="http://example.com/udate/chiffonNormalisation" xlink:title="chiffonNormalisation">
<polygon fill="#9fb1fc" stroke="#0000ff" points="1335,-566 1201,-566 1201,-530 1335,-530 1335,-566"/>
<text text-anchor="middle" x="1268" y="-544.3" font-family="Times,serif" font-size="14.00">chiffonNormalisation</text>
</a>
</g>
</g>
<!-- http://example.com/udate/cyanDataset -->
<g id="node18" class="node">
<title>http://example.com/udate/cyanDataset</title>
<g id="a_node18"><a xlink:href="http://example.com/udate/cyanDataset" xlink:title="cyanDataset">
<ellipse fill="#fffc87" stroke="#808080" cx="1268" cy="-620" rx="53.89" ry="18"/>
<text text-anchor="middle" x="1268" y="-616.3" font-family="Times,serif" font-size="14.00">cyanDataset</text>
</a>
</g>
</g>
<!-- http://example.com/udate/chiffonNormalisation&#45;&gt;http://example.com/udate/cyanDataset -->
<g id="edge33" class="edge">
<title>http://example.com/udate/chiffonNormalisation&#45;&gt;http://example.com/udate/cyanDataset</title>
<path fill="none" stroke="black" d="M1268,-566.3C1268,-574.02 1268,-583.29 1268,-591.89"/>
<polygon fill="black" stroke="black" points="1264.5,-591.9 1268,-601.9 1271.5,-591.9 1264.5,-591.9"/>
<text text-anchor="middle" x="1280.99" y="-571.9" font-family="Times,serif" font-size="8.00">use</text>
</g>
<!-- http://example.com/udate/navyDataset -->
<g id="node22" class="node">
<title>http://example.com/udate/navyDataset</title>
<g id="a_node22"><a xlink:href="http://example.com/udate/navyDataset" xlink:title="navyDataset">
<ellipse fill="#fffc87" stroke="#808080" cx="1572" cy="-620" rx="53.89" ry="18"/>
<text text-anchor="middle" x="1572" y="-616.3" font-family="Times,serif" font-size="14.00">navyDataset</text>
</a>
</g>
</g>
<!-- http://example.com/udate/chiffonNormalisation&#45;&gt;http://example.com/udate/navyDataset -->
<g id="edge32" class="edge">
<title>http://example.com/udate/chiffonNormalisation&#45;&gt;http://example.com/udate/navyDataset</title>
<path fill="none" stroke="black" d="M1335.13,-564.04C1338.13,-564.7 1341.1,-565.36 1344,-566 1417.29,-582.19 1436.08,-584.22 1509,-602 1513.15,-603.01 1517.44,-604.09 1521.74,-605.2"/>
<polygon fill="black" stroke="black" points="1521.18,-608.68 1531.75,-607.82 1522.96,-601.9 1521.18,-608.68"/>
<text text-anchor="middle" x="1345.27" y="-551.08" font-family="Times,serif" font-size="8.00">use</text>
</g>
<!-- http://example.com/udate/chiffonNormalisation&#45;&gt;http://example.com/udate/chiffon -->
<g id="edge35" class="edge">
<title>http://example.com/udate/chiffonNormalisation&#45;&gt;http://example.com/udate/chiffon</title>
<path fill="none" stroke="black" d="M1200.87,-564.03C1197.87,-564.69 1194.9,-565.35 1192,-566 1128.61,-580.09 1055.78,-596.16 1007.13,-606.87"/>
<polygon fill="black" stroke="black" points="1006.14,-603.5 997.13,-609.07 1007.65,-610.34 1006.14,-603.5"/>
<text text-anchor="middle" x="1196.37" y="-576.44" font-family="Times,serif" font-size="8.00">assoc</text>
</g>
<!-- http://example.com/udate/lecturers -->
<g id="node34" class="node">
<title>http://example.com/udate/lecturers</title>
<g id="a_node34"><a xlink:href="http://example.com/udate/lecturers" xlink:title="lecturers">
<polygon fill="#fdb266" stroke="black" points="347.73,-697.56 297,-710 246.27,-697.56 246.32,-677.44 347.68,-677.44 347.73,-697.56"/>
<text text-anchor="middle" x="297" y="-688.3" font-family="Times,serif" font-size="14.00">lecturers</text>
</a>
</g>
</g>
<!-- http://example.com/udate/chiffonTask&#45;&gt;http://example.com/udate/lecturers -->
<g id="edge45" class="edge">
<title>http://example.com/udate/chiffonTask&#45;&gt;http://example.com/udate/lecturers</title>
<path fill="none" stroke="black" d="M350.76,-637.24C341.01,-646.99 328.51,-659.49 318.01,-669.99"/>
<polygon fill="black" stroke="black" points="315.38,-667.67 310.79,-677.21 320.33,-672.62 315.38,-667.67"/>
<text text-anchor="middle" x="354.65" y="-649.82" font-family="Times,serif" font-size="8.00">assoc</text>
</g>
<!-- &#45;attrs1 -->
<g id="node7" class="node">
<title>&#45;attrs1</title>
<polygon fill="none" stroke="gray" points="348,-566 258,-566 258,-530 354,-530 354,-560 348,-566"/>
<polyline fill="none" stroke="gray" points="348,-566 348,-560 "/>
<polyline fill="none" stroke="gray" points="354,-560 348,-560 "/>
<text text-anchor="start" x="268" y="-545" font-family="Times,serif" font-size="10.00">label:</text>
<text text-anchor="start" x="294" y="-545" font-family="Times,serif" font-size="10.00">Pet Registry</text>
</g>
<!-- &#45;attrs1&#45;&gt;http://example.com/udate/chiffonTask -->
<g id="edge2" class="edge">
<title>&#45;attrs1&#45;&gt;http://example.com/udate/chiffonTask</title>
<path fill="none" stroke="gray" stroke-dasharray="5,2" d="M321.08,-566.3C330.68,-577.32 343.04,-591.5 352.51,-602.38"/>
</g>
<!-- https://tinyurl.com/chiffonQuestionnaire&#45;&gt;http://example.com/udate/chiffonDesigning -->
<g id="edge27" class="edge">
<title>https://tinyurl.com/chiffonQuestionnaire&#45;&gt;http://example.com/udate/chiffonDesigning</title>
<path fill="none" stroke="black" d="M428,-494.3C428,-502.02 428,-511.29 428,-519.89"/>
<polygon fill="black" stroke="black" points="424.5,-519.9 428,-529.9 431.5,-519.9 424.5,-519.9"/>
<text text-anchor="middle" x="440.99" y="-499.9" font-family="Times,serif" font-size="8.00">gen</text>
</g>
<!-- https://tinyurl.com/chiffonQuestionnaire&#45;&gt;http://example.com/udate/chiffon -->
<g id="edge30" class="edge">
<title>https://tinyurl.com/chiffonQuestionnaire&#45;&gt;http://example.com/udate/chiffon</title>
<path fill="none" stroke="black" d="M448.17,-493.68C479.24,-519.37 535.36,-565.72 536,-566 599.66,-593.52 798.95,-609.43 896.75,-615.77"/>
<polygon fill="black" stroke="black" points="896.54,-619.26 906.74,-616.41 896.99,-612.28 896.54,-619.26"/>
<text text-anchor="middle" x="462.22" y="-486.54" font-family="Times,serif" font-size="8.00">att</text>
</g>
<!-- &#45;attrs2 -->
<g id="node9" class="node">
<title>&#45;attrs2</title>
<polygon fill="none" stroke="gray" points="152,-415.5 0,-415.5 0,-379.5 158,-379.5 158,-409.5 152,-415.5"/>
<polyline fill="none" stroke="gray" points="152,-415.5 152,-409.5 "/>
<polyline fill="none" stroke="gray" points="158,-409.5 152,-409.5 "/>
<text text-anchor="start" x="10" y="-401.5" font-family="Times,serif" font-size="10.00">type:</text>
<text text-anchor="start" x="79" y="-401.5" font-family="Times,serif" font-size="10.00">ex:questionnaire</text>
<text text-anchor="start" x="10" y="-388.5" font-family="Times,serif" font-size="10.00">numberOfItems:</text>
<text text-anchor="start" x="79" y="-388.5" font-family="Times,serif" font-size="10.00">8</text>
</g>
<!-- &#45;attrs2&#45;&gt;https://tinyurl.com/chiffonQuestionnaire -->
<g id="edge3" class="edge">
<title>&#45;attrs2&#45;&gt;https://tinyurl.com/chiffonQuestionnaire</title>
<path fill="none" stroke="gray" stroke-dasharray="5,2" d="M144.96,-415.54C154.03,-417.78 163.24,-419.99 172,-422 238.68,-437.32 315.6,-452.98 367.58,-463.26"/>
</g>
<!-- https://tinyurl.com/chiffonSurveyResponse&#45;&gt;http://example.com/udate/chiffonSurveying -->
<g id="edge28" class="edge">
<title>https://tinyurl.com/chiffonSurveyResponse&#45;&gt;http://example.com/udate/chiffonSurveying</title>
<path fill="none" stroke="black" d="M457.55,-330.7C456.61,-341.83 455.37,-356.56 454.3,-369.26"/>
<polygon fill="black" stroke="black" points="450.8,-369.07 453.45,-379.32 457.78,-369.65 450.8,-369.07"/>
<text text-anchor="middle" x="469.86" y="-337.36" font-family="Times,serif" font-size="8.00">gen</text>
</g>
<!-- http://example.com/udate/allGroups -->
<g id="node32" class="node">
<title>http://example.com/udate/allGroups</title>
<g id="a_node32"><a xlink:href="http://example.com/udate/allGroups" xlink:title="allGroups">
<polygon fill="#fdb266" stroke="black" points="814.47,-403.06 758,-415.5 701.53,-403.06 701.58,-382.94 814.42,-382.94 814.47,-403.06"/>
<text text-anchor="middle" x="758" y="-393.8" font-family="Times,serif" font-size="14.00">allGroups</text>
</a>
</g>
</g>
<!-- https://tinyurl.com/chiffonSurveyResponse&#45;&gt;http://example.com/udate/allGroups -->
<g id="edge23" class="edge">
<title>https://tinyurl.com/chiffonSurveyResponse&#45;&gt;http://example.com/udate/allGroups</title>
<path fill="none" stroke="black" d="M517.62,-326.72C565.22,-337.86 633.9,-354.85 693,-373 699.47,-374.99 706.25,-377.24 712.89,-379.55"/>
<polygon fill="black" stroke="black" points="711.86,-382.9 722.45,-382.94 714.19,-376.3 711.86,-382.9"/>
<text text-anchor="middle" x="527.9" y="-313.9" font-family="Times,serif" font-size="8.00">assoc</text>
</g>
<!-- &#45;attrs3 -->
<g id="node11" class="node">
<title>&#45;attrs3</title>
<polygon fill="none" stroke="gray" points="516.5,-252 395.5,-252 395.5,-216 522.5,-216 522.5,-246 516.5,-252"/>
<polyline fill="none" stroke="gray" points="516.5,-252 516.5,-246 "/>
<polyline fill="none" stroke="gray" points="522.5,-246 516.5,-246 "/>
<text text-anchor="start" x="406" y="-238" font-family="Times,serif" font-size="10.00">type:</text>
<text text-anchor="start" x="475" y="-238" font-family="Times,serif" font-size="10.00">s:Dataset</text>
<text text-anchor="start" x="406" y="-225" font-family="Times,serif" font-size="10.00">numberOfItems:</text>
<text text-anchor="start" x="475" y="-225" font-family="Times,serif" font-size="10.00">31</text>
</g>
<!-- &#45;attrs3&#45;&gt;https://tinyurl.com/chiffonSurveyResponse -->
<g id="edge4" class="edge">
<title>&#45;attrs3&#45;&gt;https://tinyurl.com/chiffonSurveyResponse</title>
<path fill="none" stroke="gray" stroke-dasharray="5,2" d="M459,-252.36C459,-264.97 459,-281.94 459,-294.47"/>
</g>
<!-- https://tinyurl.com/chiffonDataset -->
<g id="node12" class="node">
<title>https://tinyurl.com/chiffonDataset</title>
<g id="a_node12"><a xlink:href="https://tinyurl.com/chiffonDataset" xlink:title="chiffonDataset">
<ellipse fill="#fffc87" stroke="#808080" cx="907" cy="-162" rx="62.29" ry="18"/>
<text text-anchor="middle" x="907" y="-158.3" font-family="Times,serif" font-size="14.00">chiffonDataset</text>
</a>
</g>
</g>
<!-- https://tinyurl.com/chiffonDataset&#45;&gt;http://example.com/udate/chiffonAggregating -->
<g id="edge29" class="edge">
<title>https://tinyurl.com/chiffonDataset&#45;&gt;http://example.com/udate/chiffonAggregating</title>
<path fill="none" stroke="black" d="M907,-180.3C907,-188.02 907,-197.29 907,-205.89"/>
<polygon fill="black" stroke="black" points="903.5,-205.9 907,-215.9 910.5,-205.9 903.5,-205.9"/>
<text text-anchor="middle" x="919.99" y="-185.9" font-family="Times,serif" font-size="8.00">gen</text>
</g>
<!-- &#45;attrs4 -->
<g id="node13" class="node">
<title>&#45;attrs4</title>
<polygon fill="none" stroke="gray" points="858,-108 782,-108 782,-72 864,-72 864,-102 858,-108"/>
<polyline fill="none" stroke="gray" points="858,-108 858,-102 "/>
<polyline fill="none" stroke="gray" points="864,-102 858,-102 "/>
<text text-anchor="start" x="792" y="-87" font-family="Times,serif" font-size="10.00">type:</text>
<text text-anchor="start" x="816" y="-87" font-family="Times,serif" font-size="10.00">s:Dataset</text>
</g>
<!-- &#45;attrs4&#45;&gt;https://tinyurl.com/chiffonDataset -->
<g id="edge5" class="edge">
<title>&#45;attrs4&#45;&gt;https://tinyurl.com/chiffonDataset</title>
<path fill="none" stroke="gray" stroke-dasharray="5,2" d="M843.76,-108.3C857.17,-119.48 874.5,-133.92 887.63,-144.86"/>
</g>
<!-- https://tinyurl.com/chiffonMetadata -->
<g id="node14" class="node">
<title>https://tinyurl.com/chiffonMetadata</title>
<g id="a_node14"><a xlink:href="https://tinyurl.com/chiffonMetadata" xlink:title="chiffonMetadata">
<ellipse fill="#fffc87" stroke="#808080" cx="952" cy="-90" rx="69.59" ry="18"/>
<text text-anchor="middle" x="952" y="-86.3" font-family="Times,serif" font-size="14.00">chiffonMetadata</text>
</a>
</g>
</g>
<!-- https://tinyurl.com/chiffonMetadata&#45;&gt;https://tinyurl.com/chiffonQuestionnaire -->
<g id="edge18" class="edge">
<title>https://tinyurl.com/chiffonMetadata&#45;&gt;https://tinyurl.com/chiffonQuestionnaire</title>
<path fill="none" stroke="black" d="M900.63,-102.3C891.44,-104.25 881.94,-106.22 873,-108 720.8,-138.21 186,-77.83 186,-233 186,-233 186,-233 186,-313.5 186,-397.32 287.69,-440.33 359.23,-460.22"/>
<polygon fill="black" stroke="black" points="358.54,-463.66 369.11,-462.88 360.36,-456.9 358.54,-463.66"/>
<text text-anchor="middle" x="895.98" y="-114.67" font-family="Times,serif" font-size="8.00">inf</text>
</g>
<!-- https://tinyurl.com/chiffonMetadata&#45;&gt;https://tinyurl.com/chiffonDataset -->
<g id="edge19" class="edge">
<title>https://tinyurl.com/chiffonMetadata&#45;&gt;https://tinyurl.com/chiffonDataset</title>
<path fill="none" stroke="black" d="M941.11,-107.95C935.75,-116.29 929.17,-126.51 923.23,-135.75"/>
<polygon fill="black" stroke="black" points="920.26,-133.91 917.79,-144.21 926.14,-137.69 920.26,-133.91"/>
<text text-anchor="middle" x="947.98" y="-119.38" font-family="Times,serif" font-size="8.00">inf</text>
</g>
<!-- https://tinyurl.com/chiffonMetadata&#45;&gt;http://example.com/udate/chiffon -->
<g id="edge31" class="edge">
<title>https://tinyurl.com/chiffonMetadata&#45;&gt;http://example.com/udate/chiffon</title>
<path fill="none" stroke="black" d="M961.78,-108.2C967.21,-118.35 973.71,-131.6 978,-144 991.23,-182.22 997,-192.55 997,-233 997,-233 997,-233 997,-477 997,-517.45 991.23,-527.78 978,-566 974.47,-576.21 969.44,-586.99 964.74,-596.15"/>
<polygon fill="black" stroke="black" points="961.63,-594.54 960.04,-605.01 967.82,-597.82 961.63,-594.54"/>
<text text-anchor="middle" x="976.77" y="-106.86" font-family="Times,serif" font-size="8.00">att</text>
</g>
<!-- &#45;attrs5 -->
<g id="node15" class="node">
<title>&#45;attrs5</title>
<polygon fill="none" stroke="gray" points="992,-36 906,-36 906,0 998,0 998,-30 992,-36"/>
<polyline fill="none" stroke="gray" points="992,-36 992,-30 "/>
<polyline fill="none" stroke="gray" points="998,-30 992,-30 "/>
<text text-anchor="start" x="916" y="-15" font-family="Times,serif" font-size="10.00">type:</text>
<text text-anchor="start" x="940" y="-15" font-family="Times,serif" font-size="10.00">prov:Entity</text>
</g>
<!-- &#45;attrs5&#45;&gt;https://tinyurl.com/chiffonMetadata -->
<g id="edge6" class="edge">
<title>&#45;attrs5&#45;&gt;https://tinyurl.com/chiffonMetadata</title>
<path fill="none" stroke="gray" stroke-dasharray="5,2" d="M952,-36.3C952,-47.15 952,-61.08 952,-71.9"/>
</g>
<!-- https://tinyurl.com/chiffonHealthIndex -->
<g id="node16" class="node">
<title>https://tinyurl.com/chiffonHealthIndex</title>
<g id="a_node16"><a xlink:href="https://tinyurl.com/chiffonHealthIndex" xlink:title="chiffonHealthIndex">
<ellipse fill="#fffc87" stroke="#808080" cx="1213" cy="-476" rx="79.09" ry="18"/>
<text text-anchor="middle" x="1213" y="-472.3" font-family="Times,serif" font-size="14.00">chiffonHealthIndex</text>
</a>
</g>
</g>
<!-- https://tinyurl.com/chiffonHealthIndex&#45;&gt;http://example.com/udate/chiffonNormalisation -->
<g id="edge34" class="edge">
<title>https://tinyurl.com/chiffonHealthIndex&#45;&gt;http://example.com/udate/chiffonNormalisation</title>
<path fill="none" stroke="black" d="M1226.31,-493.95C1232.84,-502.25 1240.83,-512.42 1248.06,-521.62"/>
<polygon fill="black" stroke="black" points="1245.5,-524.02 1254.43,-529.72 1251,-519.7 1245.5,-524.02"/>
<text text-anchor="middle" x="1241.16" y="-489.92" font-family="Times,serif" font-size="8.00">gen</text>
</g>
<!-- https://tinyurl.com/chiffonHealthIndex&#45;&gt;http://example.com/udate/chiffon -->
<g id="edge36" class="edge">
<title>https://tinyurl.com/chiffonHealthIndex&#45;&gt;http://example.com/udate/chiffon</title>
<path fill="none" stroke="black" d="M1172.33,-491.46C1148.15,-500.87 1117.34,-514.29 1092,-530 1070.82,-543.13 1069.59,-551.96 1049,-566 1030.15,-578.86 1007.88,-591.21 989.44,-600.74"/>
<polygon fill="black" stroke="black" points="987.77,-597.66 980.45,-605.33 990.95,-603.9 987.77,-597.66"/>
<text text-anchor="middle" x="1170.13" y="-504.4" font-family="Times,serif" font-size="8.00">att</text>
</g>
<!-- &#45;attrs6 -->
<g id="node17" class="node">
<title>&#45;attrs6</title>
<polygon fill="none" stroke="gray" points="1301,-422 1119,-422 1119,-373 1307,-373 1307,-416 1301,-422"/>
<polyline fill="none" stroke="gray" points="1301,-422 1301,-416 "/>
<polyline fill="none" stroke="gray" points="1307,-416 1301,-416 "/>
<text text-anchor="start" x="1129" y="-407.5" font-family="Times,serif" font-size="10.00">type:</text>
<text text-anchor="start" x="1205" y="-407.5" font-family="Times,serif" font-size="10.00">prov:Entity</text>
<text text-anchor="start" x="1129" y="-394.5" font-family="Times,serif" font-size="10.00">fileName:</text>
<text text-anchor="start" x="1205" y="-394.5" font-family="Times,serif" font-size="10.00">Health Index</text>
<text text-anchor="start" x="1129" y="-381.5" font-family="Times,serif" font-size="10.00">generatedAtTime:</text>
<text text-anchor="start" x="1205" y="-381.5" font-family="Times,serif" font-size="10.00">2023&#45;10&#45;26T00:00:00</text>
</g>
<!-- &#45;attrs6&#45;&gt;https://tinyurl.com/chiffonHealthIndex -->
<g id="edge7" class="edge">
<title>&#45;attrs6&#45;&gt;https://tinyurl.com/chiffonHealthIndex</title>
<path fill="none" stroke="gray" stroke-dasharray="5,2" d="M1213,-422.29C1213,-433.69 1213,-447.1 1213,-457.55"/>
</g>
<!-- http://example.com/udate/cyan -->
<g id="node30" class="node">
<title>http://example.com/udate/cyan</title>
<g id="a_node30"><a xlink:href="http://example.com/udate/cyan" xlink:title="cyan">
<polygon fill="#fdb266" stroke="black" points="1383.99,-697.56 1350,-710 1316.01,-697.56 1316.05,-677.44 1383.95,-677.44 1383.99,-697.56"/>
<text text-anchor="middle" x="1350" y="-688.3" font-family="Times,serif" font-size="14.00">cyan</text>
</a>
</g>
</g>
<!-- http://example.com/udate/cyanDataset&#45;&gt;http://example.com/udate/cyan -->
<g id="edge41" class="edge">
<title>http://example.com/udate/cyanDataset&#45;&gt;http://example.com/udate/cyan</title>
<path fill="none" stroke="black" d="M1287.02,-637.24C1298.66,-647.17 1313.66,-659.98 1326.1,-670.6"/>
<polygon fill="black" stroke="black" points="1323.97,-673.38 1333.85,-677.21 1328.52,-668.06 1323.97,-673.38"/>
<text text-anchor="middle" x="1301.16" y="-630.32" font-family="Times,serif" font-size="8.00">att</text>
</g>
<!-- &#45;attrs7 -->
<g id="node19" class="node">
<title>&#45;attrs7</title>
<polygon fill="none" stroke="gray" points="1177,-566 1101,-566 1101,-530 1183,-530 1183,-560 1177,-566"/>
<polyline fill="none" stroke="gray" points="1177,-566 1177,-560 "/>
<polyline fill="none" stroke="gray" points="1183,-560 1177,-560 "/>
<text text-anchor="start" x="1111" y="-545" font-family="Times,serif" font-size="10.00">type:</text>
<text text-anchor="start" x="1135" y="-545" font-family="Times,serif" font-size="10.00">s:Dataset</text>
</g>
<!-- &#45;attrs7&#45;&gt;http://example.com/udate/cyanDataset -->
<g id="edge8" class="edge">
<title>&#45;attrs7&#45;&gt;http://example.com/udate/cyanDataset</title>
<path fill="none" stroke="gray" stroke-dasharray="5,2" d="M1172.82,-566.12C1193.81,-577.78 1221.3,-593.05 1241.34,-604.19"/>
</g>
<!-- https://tinyurl.com/cyanMetadata -->
<g id="node20" class="node">
<title>https://tinyurl.com/cyanMetadata</title>
<g id="a_node20"><a xlink:href="https://tinyurl.com/cyanMetadata" xlink:title="cyanMetadata">
<ellipse fill="#fffc87" stroke="#808080" cx="1413" cy="-548" rx="60.39" ry="18"/>
<text text-anchor="middle" x="1413" y="-544.3" font-family="Times,serif" font-size="14.00">cyanMetadata</text>
</a>
</g>
</g>
<!-- https://tinyurl.com/cyanMetadata&#45;&gt;http://example.com/udate/cyanDataset -->
<g id="edge40" class="edge">
<title>https://tinyurl.com/cyanMetadata&#45;&gt;http://example.com/udate/cyanDataset</title>
<path fill="none" stroke="black" d="M1382.6,-563.67C1360.46,-574.36 1330.31,-588.92 1306.48,-600.42"/>
<polygon fill="black" stroke="black" points="1304.85,-597.32 1297.37,-604.82 1307.89,-603.63 1304.85,-597.32"/>
<text text-anchor="middle" x="1381.5" y="-576.73" font-family="Times,serif" font-size="8.00">inf</text>
</g>
<!-- https://tinyurl.com/cyanMetadata&#45;&gt;http://example.com/udate/cyan -->
<g id="edge42" class="edge">
<title>https://tinyurl.com/cyanMetadata&#45;&gt;http://example.com/udate/cyan</title>
<path fill="none" stroke="black" d="M1395.57,-565.63C1386.34,-575.39 1375.58,-588.44 1369,-602 1358.91,-622.8 1354.15,-648.89 1351.92,-667.43"/>
<polygon fill="black" stroke="black" points="1348.44,-667.07 1350.88,-677.38 1355.4,-667.8 1348.44,-667.07"/>
<text text-anchor="middle" x="1399.98" y="-578.07" font-family="Times,serif" font-size="8.00">att</text>
</g>
<!-- &#45;attrs8 -->
<g id="node21" class="node">
<title>&#45;attrs8</title>
<polygon fill="none" stroke="gray" points="1453,-494 1367,-494 1367,-458 1459,-458 1459,-488 1453,-494"/>
<polyline fill="none" stroke="gray" points="1453,-494 1453,-488 "/>
<polyline fill="none" stroke="gray" points="1459,-488 1453,-488 "/>
<text text-anchor="start" x="1377" y="-473" font-family="Times,serif" font-size="10.00">type:</text>
<text text-anchor="start" x="1401" y="-473" font-family="Times,serif" font-size="10.00">prov:Entity</text>
</g>
<!-- &#45;attrs8&#45;&gt;https://tinyurl.com/cyanMetadata -->
<g id="edge9" class="edge">
<title>&#45;attrs8&#45;&gt;https://tinyurl.com/cyanMetadata</title>
<path fill="none" stroke="gray" stroke-dasharray="5,2" d="M1413,-494.3C1413,-505.15 1413,-519.08 1413,-529.9"/>
</g>
<!-- http://example.com/udate/navy -->
<g id="node28" class="node">
<title>http://example.com/udate/navy</title>
<g id="a_node28"><a xlink:href="http://example.com/udate/navy" xlink:title="navy">
<polygon fill="#fdb266" stroke="black" points="1688.59,-697.56 1654,-710 1619.41,-697.56 1619.44,-677.44 1688.56,-677.44 1688.59,-697.56"/>
<text text-anchor="middle" x="1654" y="-688.3" font-family="Times,serif" font-size="14.00">navy</text>
</a>
</g>
</g>
<!-- http://example.com/udate/navyDataset&#45;&gt;http://example.com/udate/navy -->
<g id="edge38" class="edge">
<title>http://example.com/udate/navyDataset&#45;&gt;http://example.com/udate/navy</title>
<path fill="none" stroke="black" d="M1591.02,-637.24C1602.66,-647.17 1617.66,-659.98 1630.1,-670.6"/>
<polygon fill="black" stroke="black" points="1627.97,-673.38 1637.85,-677.21 1632.52,-668.06 1627.97,-673.38"/>
<text text-anchor="middle" x="1605.16" y="-630.32" font-family="Times,serif" font-size="8.00">att</text>
</g>
<!-- &#45;attrs9 -->
<g id="node23" class="node">
<title>&#45;attrs9</title>
<polygon fill="none" stroke="gray" points="1569,-566 1493,-566 1493,-530 1575,-530 1575,-560 1569,-566"/>
<polyline fill="none" stroke="gray" points="1569,-566 1569,-560 "/>
<polyline fill="none" stroke="gray" points="1575,-560 1569,-560 "/>
<text text-anchor="start" x="1503" y="-545" font-family="Times,serif" font-size="10.00">type:</text>
<text text-anchor="start" x="1527" y="-545" font-family="Times,serif" font-size="10.00">s:Dataset</text>
</g>
<!-- &#45;attrs9&#45;&gt;http://example.com/udate/navyDataset -->
<g id="edge10" class="edge">
<title>&#45;attrs9&#45;&gt;http://example.com/udate/navyDataset</title>
<path fill="none" stroke="gray" stroke-dasharray="5,2" d="M1543.39,-566.3C1549.28,-577.15 1556.85,-591.08 1562.71,-601.9"/>
</g>
<!-- https://tinyurl.com/navyMetadata -->
<g id="node24" class="node">
<title>https://tinyurl.com/navyMetadata</title>
<g id="a_node24"><a xlink:href="https://tinyurl.com/navyMetadata" xlink:title="navyMetadata">
<ellipse fill="#fffc87" stroke="#808080" cx="1654" cy="-548" rx="61.19" ry="18"/>
<text text-anchor="middle" x="1654" y="-544.3" font-family="Times,serif" font-size="14.00">navyMetadata</text>
</a>
</g>
</g>
<!-- https://tinyurl.com/navyMetadata&#45;&gt;http://example.com/udate/navyDataset -->
<g id="edge37" class="edge">
<title>https://tinyurl.com/navyMetadata&#45;&gt;http://example.com/udate/navyDataset</title>
<path fill="none" stroke="black" d="M1634.98,-565.24C1624.14,-574.49 1610.39,-586.23 1598.5,-596.37"/>
<polygon fill="black" stroke="black" points="1595.97,-593.94 1590.63,-603.09 1600.51,-599.26 1595.97,-593.94"/>
<text text-anchor="middle" x="1637.71" y="-578.08" font-family="Times,serif" font-size="8.00">inf</text>
</g>
<!-- https://tinyurl.com/navyMetadata&#45;&gt;http://example.com/udate/navy -->
<g id="edge39" class="edge">
<title>https://tinyurl.com/navyMetadata&#45;&gt;http://example.com/udate/navy</title>
<path fill="none" stroke="black" d="M1654,-566.13C1654,-591.27 1654,-638.26 1654,-666.88"/>
<polygon fill="black" stroke="black" points="1650.5,-667.21 1654,-677.21 1657.5,-667.21 1650.5,-667.21"/>
<text text-anchor="middle" x="1666.99" y="-571.73" font-family="Times,serif" font-size="8.00">att</text>
</g>
<!-- &#45;attrs10 -->
<g id="node25" class="node">
<title>&#45;attrs10</title>
<polygon fill="none" stroke="gray" points="1694,-494 1608,-494 1608,-458 1700,-458 1700,-488 1694,-494"/>
<polyline fill="none" stroke="gray" points="1694,-494 1694,-488 "/>
<polyline fill="none" stroke="gray" points="1700,-488 1694,-488 "/>
<text text-anchor="start" x="1618" y="-473" font-family="Times,serif" font-size="10.00">type:</text>
<text text-anchor="start" x="1642" y="-473" font-family="Times,serif" font-size="10.00">prov:Entity</text>
</g>
<!-- &#45;attrs10&#45;&gt;https://tinyurl.com/navyMetadata -->
<g id="edge11" class="edge">
<title>&#45;attrs10&#45;&gt;https://tinyurl.com/navyMetadata</title>
<path fill="none" stroke="gray" stroke-dasharray="5,2" d="M1654,-494.3C1654,-505.15 1654,-519.08 1654,-529.9"/>
</g>
<!-- &#45;attrs11 -->
<g id="node27" class="node">
<title>&#45;attrs11</title>
<polygon fill="none" stroke="gray" points="963,-566 847,-566 847,-530 969,-530 969,-560 963,-566"/>
<polyline fill="none" stroke="gray" points="963,-566 963,-560 "/>
<polyline fill="none" stroke="gray" points="969,-560 963,-560 "/>
<text text-anchor="start" x="857" y="-552" font-family="Times,serif" font-size="10.00">type:</text>
<text text-anchor="start" x="883" y="-552" font-family="Times,serif" font-size="10.00">prov:Organisation</text>
<text text-anchor="start" x="857" y="-539" font-family="Times,serif" font-size="10.00">label:</text>
<text text-anchor="start" x="883" y="-539" font-family="Times,serif" font-size="10.00">Chiffon Team</text>
</g>
<!-- &#45;attrs11&#45;&gt;http://example.com/udate/chiffon -->
<g id="edge12" class="edge">
<title>&#45;attrs11&#45;&gt;http://example.com/udate/chiffon</title>
<path fill="none" stroke="gray" stroke-dasharray="5,2" d="M918.88,-566.3C926.41,-578.29 936.3,-594.03 943.31,-605.18"/>
</g>
<!-- &#45;attrs12 -->
<g id="node29" class="node">
<title>&#45;attrs12</title>
<polygon fill="none" stroke="gray" points="1798,-638 1682,-638 1682,-602 1804,-602 1804,-632 1798,-638"/>
<polyline fill="none" stroke="gray" points="1798,-638 1798,-632 "/>
<polyline fill="none" stroke="gray" points="1804,-632 1798,-632 "/>
<text text-anchor="start" x="1692" y="-624" font-family="Times,serif" font-size="10.00">type:</text>
<text text-anchor="start" x="1718" y="-624" font-family="Times,serif" font-size="10.00">prov:Organisation</text>
<text text-anchor="start" x="1692" y="-611" font-family="Times,serif" font-size="10.00">label:</text>
<text text-anchor="start" x="1718" y="-611" font-family="Times,serif" font-size="10.00">Navy Team</text>
</g>
<!-- &#45;attrs12&#45;&gt;http://example.com/udate/navy -->
<g id="edge13" class="edge">
<title>&#45;attrs12&#45;&gt;http://example.com/udate/navy</title>
<path fill="none" stroke="gray" stroke-dasharray="5,2" d="M1721,-638.3C1705.66,-650.37 1685.48,-666.24 1671.29,-677.4"/>
</g>
<!-- &#45;attrs13 -->
<g id="node31" class="node">
<title>&#45;attrs13</title>
<polygon fill="none" stroke="gray" points="1494,-638 1378,-638 1378,-602 1500,-602 1500,-632 1494,-638"/>
<polyline fill="none" stroke="gray" points="1494,-638 1494,-632 "/>
<polyline fill="none" stroke="gray" points="1500,-632 1494,-632 "/>
<text text-anchor="start" x="1388" y="-624" font-family="Times,serif" font-size="10.00">type:</text>
<text text-anchor="start" x="1414" y="-624" font-family="Times,serif" font-size="10.00">prov:Organisation</text>
<text text-anchor="start" x="1388" y="-611" font-family="Times,serif" font-size="10.00">label:</text>
<text text-anchor="start" x="1414" y="-611" font-family="Times,serif" font-size="10.00">Cyan Team</text>
</g>
<!-- &#45;attrs13&#45;&gt;http://example.com/udate/cyan -->
<g id="edge14" class="edge">
<title>&#45;attrs13&#45;&gt;http://example.com/udate/cyan</title>
<path fill="none" stroke="gray" stroke-dasharray="5,2" d="M1417,-638.3C1401.66,-650.37 1381.48,-666.24 1367.29,-677.4"/>
</g>
<!-- &#45;attrs14 -->
<g id="node33" class="node">
<title>&#45;attrs14</title>
<polygon fill="none" stroke="gray" points="924.5,-337 571.5,-337 571.5,-288 930.5,-288 930.5,-331 924.5,-337"/>
<polyline fill="none" stroke="gray" points="924.5,-337 924.5,-331 "/>
<polyline fill="none" stroke="gray" points="930.5,-331 924.5,-331 "/>
<text text-anchor="start" x="582" y="-322.5" font-family="Times,serif" font-size="10.00">type:</text>
<text text-anchor="start" x="633" y="-322.5" font-family="Times,serif" font-size="10.00">prov:Agent</text>
<text text-anchor="start" x="582" y="-309.5" font-family="Times,serif" font-size="10.00">label:</text>
<text text-anchor="start" x="633" y="-309.5" font-family="Times,serif" font-size="10.00">All Survey Respondents</text>
<text text-anchor="start" x="582" y="-296.5" font-family="Times,serif" font-size="10.00">description:</text>
<text text-anchor="start" x="633" y="-296.5" font-family="Times,serif" font-size="10.00">Represents all respondents in the udate course survey, across all groups</text>
</g>
<!-- &#45;attrs14&#45;&gt;http://example.com/udate/allGroups -->
<g id="edge15" class="edge">
<title>&#45;attrs14&#45;&gt;http://example.com/udate/allGroups</title>
<path fill="none" stroke="gray" stroke-dasharray="5,2" d="M752.99,-337.06C754.23,-351.82 755.79,-370.33 756.84,-382.74"/>
</g>
<!-- &#45;attrs15 -->
<g id="node35" class="node">
<title>&#45;attrs15</title>
<polygon fill="none" stroke="gray" points="290,-638 156,-638 156,-602 296,-602 296,-632 290,-638"/>
<polyline fill="none" stroke="gray" points="290,-638 290,-632 "/>
<polyline fill="none" stroke="gray" points="296,-632 290,-632 "/>
<text text-anchor="start" x="166" y="-624" font-family="Times,serif" font-size="10.00">type:</text>
<text text-anchor="start" x="192" y="-624" font-family="Times,serif" font-size="10.00">prov:Organisation</text>
<text text-anchor="start" x="166" y="-611" font-family="Times,serif" font-size="10.00">label:</text>
<text text-anchor="start" x="192" y="-611" font-family="Times,serif" font-size="10.00">UDATE Teaching Staff</text>
</g>
<!-- &#45;attrs15&#45;&gt;http://example.com/udate/lecturers -->
<g id="edge16" class="edge">
<title>&#45;attrs15&#45;&gt;http://example.com/udate/lecturers</title>
<path fill="none" stroke="gray" stroke-dasharray="5,2" d="M243.55,-638.3C255.71,-650.29 271.67,-666.03 282.98,-677.18"/>
</g>
<!-- &#45;attrs16 -->
<g id="node37" class="node">
<title>&#45;attrs16</title>
<polygon fill="none" stroke="gray" points="678,-415.5 526,-415.5 526,-379.5 684,-379.5 684,-409.5 678,-415.5"/>
<polyline fill="none" stroke="gray" points="678,-415.5 678,-409.5 "/>
<polyline fill="none" stroke="gray" points="684,-409.5 678,-409.5 "/>
<text text-anchor="start" x="536" y="-401.5" font-family="Times,serif" font-size="10.00">type:</text>
<text text-anchor="start" x="562" y="-401.5" font-family="Times,serif" font-size="10.00">prov:Organisation</text>
<text text-anchor="start" x="536" y="-388.5" font-family="Times,serif" font-size="10.00">label:</text>
<text text-anchor="start" x="562" y="-388.5" font-family="Times,serif" font-size="10.00">Qualtrics Software Package</text>
</g>
<!-- &#45;attrs16&#45;&gt;http://example.com/udate/qualtrics -->
<g id="edge17" class="edge">
<title>&#45;attrs16&#45;&gt;http://example.com/udate/qualtrics</title>
<path fill="none" stroke="gray" stroke-dasharray="5,2" d="M610.45,-415.86C614.76,-429.61 620.71,-448.57 624.69,-461.27"/>
</g>
</g>
</svg>
